<svg width="72" height="72" viewBox="0 0 72 72" fill="none" xmlns="http://www.w3.org/2000/svg">
<path d="M0 36C0 16.1178 16.1178 0 36 0C55.8823 0 72 16.1178 72 36C72 55.8823 55.8823 72 36 72C16.1178 72 0 55.8823 0 36Z" fill="#00403D"/>
<path d="M25.5 49.5C24.675 49.5 23.9688 49.2063 23.3813 48.6188C22.7937 48.0313 22.5 47.325 22.5 46.5V40.5H25.5V46.5H31.5V49.5H25.5ZM40.5 49.5V46.5H46.5V40.5H49.5V46.5C49.5 47.325 49.2063 48.0313 48.6188 48.6188C48.0313 49.2063 47.325 49.5 46.5 49.5H40.5ZM22.5 31.5V25.5C22.5 24.675 22.7937 23.9688 23.3813 23.3813C23.9688 22.7937 24.675 22.5 25.5 22.5H31.5V25.5H25.5V31.5H22.5ZM46.5 31.5V25.5H40.5V22.5H46.5C47.325 22.5 48.0313 22.7937 48.6188 23.3813C49.2063 23.9688 49.5 24.675 49.5 25.5V31.5H46.5ZM30.6938 41.3063C29.2313 39.8438 28.5 38.075 28.5 36C28.5 33.925 29.2313 32.1562 30.6938 30.6938C32.1562 29.2313 33.925 28.5 36 28.5C38.075 28.5 39.8438 29.2313 41.3063 30.6938C42.7688 32.1562 43.5 33.925 43.5 36C43.5 38.075 42.7688 39.8438 41.3063 41.3063C39.8438 42.7688 38.075 43.5 36 43.5C33.925 43.5 32.1562 42.7688 30.6938 41.3063Z" fill="#D9FF00"/>
</svg>
