<svg width="50" height="50" viewBox="0 0 50 50" fill="none" xmlns="http://www.w3.org/2000/svg">
<rect width="50" height="50" rx="25" fill="#00403D"/>
<path d="M20 34H18C17.45 34 16.9792 33.8042 16.5875 33.4125C16.1958 33.0208 16 32.55 16 32V25C16 23.75 16.2375 22.5792 16.7125 21.4875C17.1875 20.3958 17.8292 19.4458 18.6375 18.6375C19.4458 17.8292 20.3958 17.1875 21.4875 16.7125C22.5792 16.2375 23.75 16 25 16C26.25 16 27.4208 16.2375 28.5125 16.7125C29.6042 17.1875 30.5542 17.8292 31.3625 18.6375C32.1708 19.4458 32.8125 20.3958 33.2875 21.4875C33.7625 22.5792 34 23.75 34 25V32C34 32.55 33.8042 33.0208 33.4125 33.4125C33.0208 33.8042 32.55 34 32 34H30C29.45 34 28.9792 33.8042 28.5875 33.4125C28.1958 33.0208 28 32.55 28 32V28C28 27.45 28.1958 26.9792 28.5875 26.5875C28.9792 26.1958 29.45 26 30 26H32V25C32 23.05 31.3208 21.3958 29.9625 20.0375C28.6042 18.6792 26.95 18 25 18C23.05 18 21.3958 18.6792 20.0375 20.0375C18.6792 21.3958 18 23.05 18 25V26H20C20.55 26 21.0208 26.1958 21.4125 26.5875C21.8042 26.9792 22 27.45 22 28V32C22 32.55 21.8042 33.0208 21.4125 33.4125C21.0208 33.8042 20.55 34 20 34Z" fill="#D9FF00"/>
</svg>
