<svg width="24" height="24" viewBox="0 0 24 24" fill="none" xmlns="http://www.w3.org/2000/svg">
<path d="M2.45078 10.575L6.65078 6.37504C6.88411 6.1417 7.15911 5.97504 7.47578 5.87504C7.79245 5.77504 8.11745 5.75837 8.45078 5.82504L9.75078 6.10004C8.85078 7.1667 8.14245 8.13337 7.62578 9.00004C7.10911 9.8667 6.60911 10.9167 6.12578 12.15L2.45078 10.575ZM7.57578 12.85C7.95911 11.65 8.47995 10.5167 9.13828 9.45004C9.79661 8.38337 10.5924 7.38337 11.5258 6.45004C12.9924 4.98337 14.6674 3.88754 16.5508 3.16254C18.4341 2.43754 20.1924 2.2167 21.8258 2.50004C22.1091 4.13337 21.8924 5.8917 21.1758 7.77504C20.4591 9.65837 19.3674 11.3334 17.9008 12.8C16.9841 13.7167 15.9841 14.5125 14.9008 15.1875C13.8174 15.8625 12.6758 16.3917 11.4758 16.775L7.57578 12.85ZM15.8883 10.425C16.4466 10.425 16.9174 10.2334 17.3008 9.85004C17.6841 9.4667 17.8758 8.99587 17.8758 8.43754C17.8758 7.8792 17.6841 7.40837 17.3008 7.02504C16.9174 6.6417 16.4466 6.45004 15.8883 6.45004C15.3299 6.45004 14.8591 6.6417 14.4758 7.02504C14.0924 7.40837 13.9008 7.8792 13.9008 8.43754C13.9008 8.99587 14.0924 9.4667 14.4758 9.85004C14.8591 10.2334 15.3299 10.425 15.8883 10.425ZM13.7758 21.875L12.1758 18.2C13.4091 17.7167 14.4633 17.2167 15.3383 16.7C16.2133 16.1834 17.1841 15.475 18.2508 14.575L18.5008 15.875C18.5674 16.2084 18.5508 16.5375 18.4508 16.8625C18.3508 17.1875 18.1841 17.4667 17.9508 17.7L13.7758 21.875ZM4.05078 16.05C4.63411 15.4667 5.34245 15.1709 6.17578 15.1625C7.00911 15.1542 7.71745 15.4417 8.30078 16.025C8.88411 16.6084 9.17578 17.3167 9.17578 18.15C9.17578 18.9834 8.88411 19.6917 8.30078 20.275C7.88411 20.6917 7.18828 21.05 6.21328 21.35C5.23828 21.65 3.89245 21.9167 2.17578 22.15C2.40911 20.4334 2.67578 19.0917 2.97578 18.125C3.27578 17.1584 3.63411 16.4667 4.05078 16.05Z" fill="#00403D"/>
</svg>
