<svg width="56" height="56" viewBox="0 0 56 56" fill="none" xmlns="http://www.w3.org/2000/svg">
<path d="M0 28C0 12.536 12.536 0 28 0C43.464 0 56 12.536 56 28C56 43.464 43.464 56 28 56C12.536 56 0 43.464 0 28Z" fill="#00403D"/>
<path d="M27.5 22.75C27.3667 22.75 27.25 22.7 27.15 22.6C27.05 22.5 27 22.3833 27 22.25V20.25C27 19.55 27.2417 18.9583 27.725 18.475C28.2083 17.9917 28.8 17.75 29.5 17.75H31.5C31.6333 17.75 31.75 17.8 31.85 17.9C31.95 18 32 18.1167 32 18.25V20.25C32 20.95 31.7583 21.5417 31.275 22.025C30.7917 22.5083 30.2 22.75 29.5 22.75H27.5ZM21.5 28.75C20.5333 28.75 19.7083 28.4083 19.025 27.725C18.3417 27.0417 18 26.2167 18 25.25V22.75C18 22.4667 18.0958 22.2292 18.2875 22.0375C18.4792 21.8458 18.7167 21.75 19 21.75H21.5C22.4667 21.75 23.2917 22.0917 23.975 22.775C24.6583 23.4583 25 24.2833 25 25.25V27.75C25 28.0333 24.9042 28.2708 24.7125 28.4625C24.5208 28.6542 24.2833 28.75 24 28.75H21.5ZM32 37.75C31.35 37.75 30.7292 37.65 30.1375 37.45C29.5458 37.25 29.0083 36.975 28.525 36.625L27.7 37.45C27.5167 37.6333 27.2833 37.725 27 37.725C26.7167 37.725 26.4833 37.6333 26.3 37.45C26.1167 37.2667 26.025 37.0333 26.025 36.75C26.025 36.4667 26.1167 36.2333 26.3 36.05L27.125 35.225C26.775 34.7417 26.5 34.2042 26.3 33.6125C26.1 33.0208 26 32.4 26 31.75C26 30.0833 26.5833 28.6625 27.75 27.4875C28.9167 26.3125 30.3333 25.725 32 25.725H36.025C36.575 25.725 37.0458 25.9208 37.4375 26.3125C37.8292 26.7042 38.025 27.175 38.025 27.725V31.75C38.025 33.4167 37.4375 34.8333 36.2625 36C35.0875 37.1667 33.6667 37.75 32 37.75ZM29.3 34.45C29.4833 34.6333 29.7167 34.725 30 34.725C30.2833 34.725 30.5167 34.6333 30.7 34.45L32.7 32.45C32.8833 32.2667 32.975 32.0333 32.975 31.75C32.975 31.4667 32.8833 31.2333 32.7 31.05C32.5167 30.8667 32.2833 30.775 32 30.775C31.7167 30.775 31.4833 30.8667 31.3 31.05L29.3 33.05C29.1167 33.2333 29.025 33.4667 29.025 33.75C29.025 34.0333 29.1167 34.2667 29.3 34.45Z" fill="#D9FF00"/>
</svg>
