<svg width="56" height="56" viewBox="0 0 56 56" fill="none" xmlns="http://www.w3.org/2000/svg">
<path d="M0 28C0 12.536 12.536 0 28 0C43.464 0 56 12.536 56 28C56 43.464 43.464 56 28 56C12.536 56 0 43.464 0 28Z" fill="#00403D"/>
<path d="M22.75 38C22 38 21.3542 37.7458 20.8125 37.2375C20.2708 36.7291 20 36.1 20 35.35V21.4C20 20.7666 20.1958 20.2 20.5875 19.7C20.9792 19.2 21.4917 18.8833 22.125 18.75L29.625 17.275C30.2417 17.1416 30.7917 17.275 31.275 17.675C31.7583 18.075 32 18.5916 32 19.225V31.15C32 31.6333 31.85 32.0625 31.55 32.4375C31.25 32.8125 30.8667 33.0416 30.4 33.125L22.525 34.7C22.375 34.7333 22.25 34.8125 22.15 34.9375C22.05 35.0625 22 35.2 22 35.35C22 35.5333 22.075 35.6875 22.225 35.8125C22.375 35.9375 22.55 36 22.75 36H34V21C34 20.7166 34.0958 20.4791 34.2875 20.2875C34.4792 20.0958 34.7167 20 35 20C35.2833 20 35.5208 20.0958 35.7125 20.2875C35.9042 20.4791 36 20.7166 36 21V36C36 36.55 35.8042 37.0208 35.4125 37.4125C35.0208 37.8041 34.55 38 34 38H22.75ZM24.2 32.35C24.4333 32.3 24.625 32.1833 24.775 32C24.925 31.8166 25 31.6083 25 31.375V21.45C25 21.1333 24.8792 20.875 24.6375 20.675C24.3958 20.475 24.1167 20.4083 23.8 20.475C23.5667 20.525 23.375 20.6416 23.225 20.825C23.075 21.0083 23 21.2166 23 21.45V31.375C23 31.6916 23.1208 31.95 23.3625 32.15C23.6042 32.35 23.8833 32.4166 24.2 32.35Z" fill="#D9FF00"/>
</svg>
