<svg xmlns="http://www.w3.org/2000/svg" width="52" height="52" fill="none" viewBox="0 0 52 52"><path fill="#fff" d="M0 26C0 11.64 11.64 0 26 0s26 11.64 26 26-11.64 26-26 26S0 40.36 0 26"/><g clip-path="url(#a)"><mask id="b" width="31" height="30" x="10" y="11" maskUnits="userSpaceOnUse" style="mask-type:luminance"><path fill="#fff" d="M39.918 23.217H25.813v5.767h8.105a6.8 6.8 0 0 1-.852 2.351 6.9 6.9 0 0 1-1.72 1.964c-1.862 1.457-4.034 1.755-5.543 1.755-3.81 0-7.066-2.513-8.327-5.928-.05-.124-.084-.252-.125-.379a8.97 8.97 0 0 1 .034-5.595c1.185-3.55 4.515-6.202 8.421-6.202.786 0 1.542.096 2.26.286a8.1 8.1 0 0 1 3.51 1.97l4.29-4.286c-2.61-2.441-6.01-3.92-10.067-3.92a14.95 14.95 0 0 0-8.69 2.774 15 15 0 0 0-4.724 5.502 14.84 14.84 0 0 0-1.585 6.723 14.8 14.8 0 0 0 1.586 6.727v.014a15.16 15.16 0 0 0 4.588 5.395A14.9 14.9 0 0 0 25.799 41c2.377 0 4.483-.437 6.34-1.257a13 13 0 0 0 3.603-2.353c1.42-1.31 2.533-2.929 3.293-4.792.759-1.863 1.165-3.97 1.165-6.255a18 18 0 0 0-.282-3.126"/></mask><g mask="url(#b)"><g filter="url(#c)"><path fill="url(#d)" d="M10.584 26.1c.015 2.39.683 4.855 1.693 6.845v.014c.73 1.445 1.727 2.587 2.863 3.718L22 34.123c-1.298-.673-1.496-1.085-2.426-1.838a8.9 8.9 0 0 1-2.101-3.418h-.018l.018-.014c-.29-.87-.319-1.793-.33-2.752z"/></g><g filter="url(#e)"><path fill="url(#f)" d="M25.813 10.892c-.678 2.43-.418 4.794 0 6.169.784 0 1.538.095 2.253.285a8.1 8.1 0 0 1 3.51 1.97l4.399-4.395c-2.606-2.438-5.741-4.026-10.162-4.03"/></g><g filter="url(#g)"><path fill="url(#h)" d="M25.799 10.872a15.33 15.33 0 0 0-8.914 2.845 15.4 15.4 0 0 0-2.555 2.282c-.2 1.915 1.497 4.269 4.858 4.25 1.631-1.937 4.043-3.189 6.728-3.189h.007l-.11-6.187z"/></g><g filter="url(#i)"><path fill="url(#j)" d="m36.777 26.794-2.969 2.081a6.8 6.8 0 0 1-.851 2.351 6.9 6.9 0 0 1-1.72 1.964c-1.859 1.454-4.025 1.753-5.533 1.754-1.56 2.71-1.832 4.066.11 6.252 2.402-.001 4.532-.444 6.41-1.273a13.1 13.1 0 0 0 3.651-2.384c1.44-1.327 2.568-2.968 3.337-4.857.77-1.888 1.18-4.023 1.18-6.338z"/></g><g filter="url(#k)"><path fill="#3086ff" d="M25.594 22.998v6.205h14.284c.126-.85.541-1.95.541-2.86 0-1.064-.104-2.363-.282-3.345z"/></g><g filter="url(#l)"><path fill="url(#m)" d="M14.398 15.78a15 15 0 0 0-2.232 3.277c-1.024 2.038-1.585 4.515-1.585 6.942l.003.102c.454.887 6.266.718 6.56 0l-.005-.1c0-.995.165-1.73.466-2.63a9.2 9.2 0 0 1 1.693-3.013c.168-.22.617-.69.748-.973.05-.108-.09-.168-.099-.206-.008-.043-.197-.008-.239-.04-.134-.1-.399-.153-.56-.2-.344-.099-.915-.318-1.231-.545-1.002-.719-2.565-1.577-3.52-2.614"/></g><g filter="url(#n)"><path fill="url(#o)" d="M17.938 19.183c2.322 1.435 2.99-.725 4.534-1.4l-2.686-5.684a15.1 15.1 0 0 0-6.167 4.88z"/></g><g filter="url(#p)"><path fill="url(#q)" d="M18.883 33.684c-3.117 1.148-3.605 1.19-3.892 3.16a15 15 0 0 0 1.763 1.51c1.68 1.229 4.912 2.865 9.045 2.865h.014v-6.384h-.01c-1.547 0-2.784-.415-4.052-1.136-.313-.178-.88.3-1.168.086-.398-.294-1.355.254-1.7-.101"/></g><g filter="url(#r)" opacity=".5"><path fill="url(#s)" d="M23.988 34.634v6.475c.578.069 1.18.11 1.81.11q.95 0 1.841-.093v-6.449a10.7 10.7 0 0 1-1.836.158 8.6 8.6 0 0 1-1.815-.201"/></g></g></g><defs><filter id="c" width="12.2" height="11.36" x="10.192" y="25.709" color-interpolation-filters="sRGB" filterUnits="userSpaceOnUse"><feFlood flood-opacity="0" result="BackgroundImageFix"/><feBlend in="SourceGraphic" in2="BackgroundImageFix" result="shape"/><feGaussianBlur result="effect1_foregroundBlur_14064_407" stdDeviation=".196"/></filter><filter id="e" width="11.362" height="9.207" x="25.005" y="10.5" color-interpolation-filters="sRGB" filterUnits="userSpaceOnUse"><feFlood flood-opacity="0" result="BackgroundImageFix"/><feBlend in="SourceGraphic" in2="BackgroundImageFix" result="shape"/><feGaussianBlur result="effect1_foregroundBlur_14064_407" stdDeviation=".196"/></filter><filter id="g" width="12.393" height="10.159" x="13.922" y="10.48" color-interpolation-filters="sRGB" filterUnits="userSpaceOnUse"><feFlood flood-opacity="0" result="BackgroundImageFix"/><feBlend in="SourceGraphic" in2="BackgroundImageFix" result="shape"/><feGaussianBlur result="effect1_foregroundBlur_14064_407" stdDeviation=".196"/></filter><filter id="i" width="16.732" height="15.636" x="24.053" y="25.952" color-interpolation-filters="sRGB" filterUnits="userSpaceOnUse"><feFlood flood-opacity="0" result="BackgroundImageFix"/><feBlend in="SourceGraphic" in2="BackgroundImageFix" result="shape"/><feGaussianBlur result="effect1_foregroundBlur_14064_407" stdDeviation=".196"/></filter><filter id="k" width="15.609" height="6.989" x="25.203" y="22.606" color-interpolation-filters="sRGB" filterUnits="userSpaceOnUse"><feFlood flood-opacity="0" result="BackgroundImageFix"/><feBlend in="SourceGraphic" in2="BackgroundImageFix" result="shape"/><feGaussianBlur result="effect1_foregroundBlur_14064_407" stdDeviation=".196"/></filter><filter id="l" width="10.259" height="11.707" x="10.189" y="15.389" color-interpolation-filters="sRGB" filterUnits="userSpaceOnUse"><feFlood flood-opacity="0" result="BackgroundImageFix"/><feBlend in="SourceGraphic" in2="BackgroundImageFix" result="shape"/><feGaussianBlur result="effect1_foregroundBlur_14064_407" stdDeviation=".196"/></filter><filter id="n" width="14.361" height="13.075" x="10.865" y="9.345" color-interpolation-filters="sRGB" filterUnits="userSpaceOnUse"><feFlood flood-opacity="0" result="BackgroundImageFix"/><feBlend in="SourceGraphic" in2="BackgroundImageFix" result="shape"/><feGaussianBlur result="effect1_foregroundBlur_14064_407" stdDeviation="1.377"/></filter><filter id="p" width="11.606" height="8.345" x="14.599" y="33.267" color-interpolation-filters="sRGB" filterUnits="userSpaceOnUse"><feFlood flood-opacity="0" result="BackgroundImageFix"/><feBlend in="SourceGraphic" in2="BackgroundImageFix" result="shape"/><feGaussianBlur result="effect1_foregroundBlur_14064_407" stdDeviation=".196"/></filter><filter id="r" width="4.435" height="7.369" x="23.596" y="34.242" color-interpolation-filters="sRGB" filterUnits="userSpaceOnUse"><feFlood flood-opacity="0" result="BackgroundImageFix"/><feBlend in="SourceGraphic" in2="BackgroundImageFix" result="shape"/><feGaussianBlur result="effect1_foregroundBlur_14064_407" stdDeviation=".196"/></filter><radialGradient id="d" cx="0" cy="0" r="1" gradientTransform="matrix(-.61093 -14.9399 21.9656 -.89653 21.863 36.452)" gradientUnits="userSpaceOnUse"><stop offset=".142" stop-color="#1abd4d"/><stop offset=".248" stop-color="#6ec30d"/><stop offset=".312" stop-color="#8ac502"/><stop offset=".366" stop-color="#a2c600"/><stop offset=".446" stop-color="#c8c903"/><stop offset=".54" stop-color="#ebcb03"/><stop offset=".616" stop-color="#f7cd07"/><stop offset=".699" stop-color="#fdcd04"/><stop offset=".771" stop-color="#fdce05"/><stop offset=".861" stop-color="#ffce0a"/></radialGradient><radialGradient id="f" cx="0" cy="0" r="1" gradientTransform="matrix(10.3753 0 0 13.3866 35.563 18.998)" gradientUnits="userSpaceOnUse"><stop offset=".408" stop-color="#fb4e5a"/><stop offset="1" stop-color="#ff4540"/></radialGradient><radialGradient id="h" cx="0" cy="0" r="1" gradientTransform="matrix(-14.5366 8.04365 10.9255 19.7075 29.897 8.934)" gradientUnits="userSpaceOnUse"><stop offset=".231" stop-color="#ff4541"/><stop offset=".312" stop-color="#ff4540"/><stop offset=".458" stop-color="#ff4640"/><stop offset=".54" stop-color="#ff473f"/><stop offset=".699" stop-color="#ff5138"/><stop offset=".771" stop-color="#ff5b33"/><stop offset=".861" stop-color="#ff6c29"/><stop offset="1" stop-color="#ff8c18"/></radialGradient><radialGradient id="j" cx="0" cy="0" r="1" gradientTransform="matrix(-26.3625 -34.3809 -12.7028 9.7219 26.03 39.255)" gradientUnits="userSpaceOnUse"><stop offset=".132" stop-color="#0cba65"/><stop offset=".21" stop-color="#0bb86d"/><stop offset=".297" stop-color="#09b479"/><stop offset=".396" stop-color="#08ad93"/><stop offset=".477" stop-color="#0aa6a9"/><stop offset=".568" stop-color="#0d9cc6"/><stop offset=".667" stop-color="#1893dd"/><stop offset=".769" stop-color="#258bf1"/><stop offset=".859" stop-color="#3086ff"/></radialGradient><radialGradient id="m" cx="0" cy="0" r="1" gradientTransform="matrix(-1.86562 16.0652 22.2339 2.5771 24.525 13.705)" gradientUnits="userSpaceOnUse"><stop offset=".366" stop-color="#ff4e3a"/><stop offset=".458" stop-color="#ff8a1b"/><stop offset=".54" stop-color="#ffa312"/><stop offset=".616" stop-color="#ffb60c"/><stop offset=".771" stop-color="#ffcd0a"/><stop offset=".861" stop-color="#fecf0a"/><stop offset=".915" stop-color="#fecf08"/><stop offset="1" stop-color="#fdcd01"/></radialGradient><radialGradient id="o" cx="0" cy="0" r="1" gradientTransform="matrix(-5.3926 5.95847 -16.822 -15.1957 21.901 13.539)" gradientUnits="userSpaceOnUse"><stop offset=".316" stop-color="#ff4c3c"/><stop offset=".604" stop-color="#ff692c"/><stop offset=".727" stop-color="#ff7825"/><stop offset=".885" stop-color="#ff8d1b"/><stop offset="1" stop-color="#ff9f13"/></radialGradient><radialGradient id="q" cx="0" cy="0" r="1" gradientTransform="matrix(-14.5366 -8.04365 10.9255 -19.7075 29.897 43.066)" gradientUnits="userSpaceOnUse"><stop offset=".231" stop-color="#0fbc5f"/><stop offset=".312" stop-color="#0fbc5f"/><stop offset=".366" stop-color="#0fbc5e"/><stop offset=".458" stop-color="#0fbc5d"/><stop offset=".54" stop-color="#12bc58"/><stop offset=".699" stop-color="#28bf3c"/><stop offset=".771" stop-color="#38c02b"/><stop offset=".861" stop-color="#52c218"/><stop offset=".915" stop-color="#67c30f"/><stop offset="1" stop-color="#86c504"/></radialGradient><linearGradient id="s" x1="23.988" x2="27.639" y1="37.927" y2="37.927" gradientUnits="userSpaceOnUse"><stop stop-color="#0fbc5c"/><stop offset="1" stop-color="#0cba65"/></linearGradient><clipPath id="a"><path fill="#fff" d="M10.8 11h29.4v30H10.8z"/></clipPath></defs></svg>