<svg width="52" height="52" viewBox="0 0 52 52" fill="none" xmlns="http://www.w3.org/2000/svg">
<path d="M0 26C0 11.6406 11.6406 0 26 0C40.3594 0 52 11.6406 52 26C52 40.3594 40.3594 52 26 52C11.6406 52 0 40.3594 0 26Z" fill="#D9FF00" fill-opacity="0.2"/>
<g clip-path="url(#clip0_14344_8023)">
<mask id="mask0_14344_8023" style="mask-type:luminance" maskUnits="userSpaceOnUse" x="10" y="11" width="31" height="30">
<path d="M39.9185 23.2171H25.8139V28.9842H33.9185C33.7882 29.8003 33.4956 30.6032 33.0672 31.3354C32.5764 32.1741 31.9696 32.8127 31.3476 33.299C29.4846 34.7558 27.3125 35.0537 25.8041 35.0537C21.9935 35.0537 18.7376 32.5406 17.4772 29.1257C17.4263 29.0018 17.3925 28.8738 17.3514 28.7473C17.0729 27.8781 16.9207 26.9577 16.9207 26.001C16.9207 25.0053 17.0855 24.0522 17.386 23.152C18.5712 19.6018 21.9005 16.9501 25.8068 16.9501C26.5925 16.9501 27.3492 17.0455 28.0667 17.2359C29.7065 17.6709 30.8665 18.5277 31.5772 19.2053L35.8658 14.9197C33.2571 12.479 29.8563 11 25.7997 11C22.5567 10.9999 19.5626 12.031 17.109 13.7735C15.1193 15.1866 13.4874 17.0786 12.3861 19.2759C11.3617 21.3133 10.8008 23.5711 10.8008 25.9987C10.8008 28.4264 11.3626 30.7076 12.3869 32.7262V32.7398C13.469 34.8828 15.0512 36.7279 16.9743 38.1345C18.6543 39.3634 21.6667 41 25.7997 41C28.1764 41 30.2829 40.5627 32.1406 39.7433C33.4807 39.1522 34.6681 38.3811 35.7431 37.3902C37.1636 36.0809 38.276 34.4614 39.0353 32.5981C39.7946 30.7348 40.2008 28.6277 40.2008 26.3433C40.2008 25.2794 40.0961 24.199 39.9185 23.217V23.2171Z" fill="white"/>
</mask>
<g mask="url(#mask0_14344_8023)">
<g filter="url(#filter0_f_14344_8023)">
<path d="M10.5859 26.1006C10.6015 28.49 11.2688 30.9552 12.2787 32.9453V32.959C13.0084 34.4043 14.0058 35.5459 15.1418 36.6771L22.0027 34.1226C20.7046 33.4497 20.5066 33.0375 19.5761 32.2852C18.6252 31.3068 17.9165 30.1836 17.4752 28.8666H17.4574L17.4752 28.8529C17.1848 27.9832 17.1562 27.06 17.1454 26.1006H10.5859Z" fill="url(#paint0_radial_14344_8023)"/>
</g>
<g filter="url(#filter1_f_14344_8023)">
<path d="M25.8154 10.8909C25.1373 13.3219 25.3966 15.6849 25.8154 17.0598C26.5985 17.0604 27.3528 17.1556 28.0681 17.3454C29.708 17.7804 30.8678 18.6372 31.5785 19.3149L35.9769 14.9197C33.3713 12.4819 30.2356 10.8947 25.8154 10.8909Z" fill="url(#paint1_radial_14344_8023)"/>
</g>
<g filter="url(#filter2_f_14344_8023)">
<path d="M25.7994 10.8717C22.4732 10.8716 19.4022 11.9291 16.8857 13.7164C15.9513 14.38 15.0938 15.1466 14.3303 15.999C14.1303 17.9138 15.8276 20.2674 19.189 20.2479C20.8198 18.3121 23.2319 17.0596 25.9165 17.0596C25.9189 17.0596 25.9213 17.0598 25.9238 17.0598L25.8141 10.8721C25.8092 10.8721 25.8044 10.8717 25.7994 10.8717Z" fill="url(#paint2_radial_14344_8023)"/>
</g>
<g filter="url(#filter3_f_14344_8023)">
<path d="M36.7793 26.7935L33.8103 28.8747C33.6801 29.6909 33.3873 30.4937 32.9589 31.2259C32.4681 32.0647 31.8613 32.7033 31.2394 33.1896C29.3802 34.6433 27.2139 34.9426 25.7058 34.9439C24.1471 37.6529 23.8738 39.0098 25.8154 41.1962C28.218 41.1944 30.348 40.7518 32.2268 39.9231C33.5849 39.324 34.7882 38.5426 35.8776 37.5384C37.3171 36.2115 38.4447 34.5702 39.2142 32.682C39.9837 30.7937 40.3951 28.6584 40.3951 26.3434L36.7793 26.7935Z" fill="url(#paint3_radial_14344_8023)"/>
</g>
<g filter="url(#filter4_f_14344_8023)">
<path d="M25.5957 22.998V29.2033H39.8799C40.0055 28.3535 40.421 27.2538 40.421 26.3434C40.421 25.2795 40.3164 23.98 40.1388 22.998H25.5957Z" fill="#3086FF"/>
</g>
<g filter="url(#filter5_f_14344_8023)">
<path d="M14.3989 15.7799C13.5174 16.764 12.7644 17.8656 12.1673 19.0569C11.1429 21.0943 10.582 23.5712 10.582 25.9987C10.582 26.0329 10.5848 26.0664 10.585 26.1006C11.0387 26.9881 16.8516 26.8182 17.1445 26.1006C17.1442 26.0671 17.1405 26.0344 17.1405 26.0009C17.1405 25.0052 17.3053 24.2713 17.6058 23.3711C17.9765 22.2608 18.5569 21.2383 19.2991 20.3574C19.4673 20.1382 19.9161 19.667 20.047 19.3844C20.0969 19.2767 19.9565 19.2163 19.9486 19.1784C19.9398 19.136 19.7515 19.1701 19.7094 19.1386C19.5754 19.0383 19.3103 18.986 19.1492 18.9395C18.805 18.84 18.2346 18.6207 17.9178 18.3934C16.9163 17.6748 15.3534 16.8164 14.3989 15.7799Z" fill="url(#paint4_radial_14344_8023)"/>
</g>
<g filter="url(#filter6_f_14344_8023)">
<path d="M17.9397 19.1827C20.2621 20.6182 20.93 18.4581 22.474 17.7822L19.7881 12.0986C18.8001 12.5224 17.8666 13.0488 17.0004 13.664C15.7069 14.5826 14.5647 15.7036 13.6211 16.9793L17.9397 19.1827Z" fill="url(#paint5_radial_14344_8023)"/>
</g>
<g filter="url(#filter7_f_14344_8023)">
<path d="M18.8847 33.6834C15.7672 34.8318 15.2791 34.873 14.9922 36.8444C15.5406 37.3905 16.1297 37.8956 16.7558 38.3536C18.4359 39.5824 21.6675 41.219 25.8004 41.219C25.8053 41.219 25.8099 41.2186 25.8148 41.2186V34.8343C25.8117 34.8343 25.8081 34.8345 25.8049 34.8345C24.2573 34.8345 23.0206 34.4197 21.7525 33.6984C21.4399 33.5206 20.8727 33.9981 20.5843 33.7846C20.1867 33.4902 19.2296 34.0383 18.8847 33.6834Z" fill="url(#paint6_radial_14344_8023)"/>
</g>
<g opacity="0.5" filter="url(#filter8_f_14344_8023)">
<path d="M23.9883 34.6333V41.1081C24.5666 41.1772 25.1684 41.2191 25.7997 41.2191C26.4326 41.2191 27.0448 41.186 27.6398 41.125V34.6769C26.9731 34.7932 26.3451 34.8346 25.8042 34.8346C25.1812 34.8346 24.5753 34.7606 23.9883 34.6333Z" fill="url(#paint7_linear_14344_8023)"/>
</g>
</g>
</g>
<defs>
<filter id="filter0_f_14344_8023" x="10.1942" y="25.7089" width="12.1995" height="11.3599" filterUnits="userSpaceOnUse" color-interpolation-filters="sRGB">
<feFlood flood-opacity="0" result="BackgroundImageFix"/>
<feBlend mode="normal" in="SourceGraphic" in2="BackgroundImageFix" result="shape"/>
<feGaussianBlur stdDeviation="0.195866" result="effect1_foregroundBlur_14344_8023"/>
</filter>
<filter id="filter1_f_14344_8023" x="25.0067" y="10.4991" width="11.3616" height="9.20742" filterUnits="userSpaceOnUse" color-interpolation-filters="sRGB">
<feFlood flood-opacity="0" result="BackgroundImageFix"/>
<feBlend mode="normal" in="SourceGraphic" in2="BackgroundImageFix" result="shape"/>
<feGaussianBlur stdDeviation="0.195866" result="effect1_foregroundBlur_14344_8023"/>
</filter>
<filter id="filter2_f_14344_8023" x="13.9227" y="10.48" width="12.3928" height="10.1598" filterUnits="userSpaceOnUse" color-interpolation-filters="sRGB">
<feFlood flood-opacity="0" result="BackgroundImageFix"/>
<feBlend mode="normal" in="SourceGraphic" in2="BackgroundImageFix" result="shape"/>
<feGaussianBlur stdDeviation="0.195866" result="effect1_foregroundBlur_14344_8023"/>
</filter>
<filter id="filter3_f_14344_8023" x="24.0555" y="25.9517" width="16.7307" height="15.6362" filterUnits="userSpaceOnUse" color-interpolation-filters="sRGB">
<feFlood flood-opacity="0" result="BackgroundImageFix"/>
<feBlend mode="normal" in="SourceGraphic" in2="BackgroundImageFix" result="shape"/>
<feGaussianBlur stdDeviation="0.195866" result="effect1_foregroundBlur_14344_8023"/>
</filter>
<filter id="filter4_f_14344_8023" x="25.204" y="22.6063" width="15.6096" height="6.98867" filterUnits="userSpaceOnUse" color-interpolation-filters="sRGB">
<feFlood flood-opacity="0" result="BackgroundImageFix"/>
<feBlend mode="normal" in="SourceGraphic" in2="BackgroundImageFix" result="shape"/>
<feGaussianBlur stdDeviation="0.195866" result="effect1_foregroundBlur_14344_8023"/>
</filter>
<filter id="filter5_f_14344_8023" x="10.1903" y="15.3882" width="10.26" height="11.7078" filterUnits="userSpaceOnUse" color-interpolation-filters="sRGB">
<feFlood flood-opacity="0" result="BackgroundImageFix"/>
<feBlend mode="normal" in="SourceGraphic" in2="BackgroundImageFix" result="shape"/>
<feGaussianBlur stdDeviation="0.195866" result="effect1_foregroundBlur_14344_8023"/>
</filter>
<filter id="filter6_f_14344_8023" x="10.8671" y="9.34459" width="14.3616" height="13.0746" filterUnits="userSpaceOnUse" color-interpolation-filters="sRGB">
<feFlood flood-opacity="0" result="BackgroundImageFix"/>
<feBlend mode="normal" in="SourceGraphic" in2="BackgroundImageFix" result="shape"/>
<feGaussianBlur stdDeviation="1.37702" result="effect1_foregroundBlur_14344_8023"/>
</filter>
<filter id="filter7_f_14344_8023" x="14.6005" y="33.2661" width="11.6057" height="8.34462" filterUnits="userSpaceOnUse" color-interpolation-filters="sRGB">
<feFlood flood-opacity="0" result="BackgroundImageFix"/>
<feBlend mode="normal" in="SourceGraphic" in2="BackgroundImageFix" result="shape"/>
<feGaussianBlur stdDeviation="0.195866" result="effect1_foregroundBlur_14344_8023"/>
</filter>
<filter id="filter8_f_14344_8023" x="23.5965" y="34.2416" width="4.43581" height="7.36928" filterUnits="userSpaceOnUse" color-interpolation-filters="sRGB">
<feFlood flood-opacity="0" result="BackgroundImageFix"/>
<feBlend mode="normal" in="SourceGraphic" in2="BackgroundImageFix" result="shape"/>
<feGaussianBlur stdDeviation="0.195866" result="effect1_foregroundBlur_14344_8023"/>
</filter>
<radialGradient id="paint0_radial_14344_8023" cx="0" cy="0" r="1" gradientTransform="matrix(-0.610934 -14.9399 21.9656 -0.896529 21.8653 36.452)" gradientUnits="userSpaceOnUse">
<stop offset="0.141612" stop-color="#1ABD4D"/>
<stop offset="0.247515" stop-color="#6EC30D"/>
<stop offset="0.311547" stop-color="#8AC502"/>
<stop offset="0.366013" stop-color="#A2C600"/>
<stop offset="0.445673" stop-color="#C8C903"/>
<stop offset="0.540305" stop-color="#EBCB03"/>
<stop offset="0.615636" stop-color="#F7CD07"/>
<stop offset="0.699345" stop-color="#FDCD04"/>
<stop offset="0.771242" stop-color="#FDCE05"/>
<stop offset="0.860566" stop-color="#FFCE0A"/>
</radialGradient>
<radialGradient id="paint1_radial_14344_8023" cx="0" cy="0" r="1" gradientTransform="matrix(10.3753 -2.54446e-05 -1.4583e-05 13.3866 35.5655 18.9969)" gradientUnits="userSpaceOnUse">
<stop offset="0.408458" stop-color="#FB4E5A"/>
<stop offset="1" stop-color="#FF4540"/>
</radialGradient>
<radialGradient id="paint2_radial_14344_8023" cx="0" cy="0" r="1" gradientTransform="matrix(-14.5366 8.04365 10.9255 19.7075 29.8982 8.93395)" gradientUnits="userSpaceOnUse">
<stop offset="0.231273" stop-color="#FF4541"/>
<stop offset="0.311547" stop-color="#FF4540"/>
<stop offset="0.457516" stop-color="#FF4640"/>
<stop offset="0.540305" stop-color="#FF473F"/>
<stop offset="0.699346" stop-color="#FF5138"/>
<stop offset="0.771242" stop-color="#FF5B33"/>
<stop offset="0.860566" stop-color="#FF6C29"/>
<stop offset="1" stop-color="#FF8C18"/>
</radialGradient>
<radialGradient id="paint3_radial_14344_8023" cx="0" cy="0" r="1" gradientTransform="matrix(-26.3625 -34.3809 -12.7028 9.7219 26.0316 39.2545)" gradientUnits="userSpaceOnUse">
<stop offset="0.131546" stop-color="#0CBA65"/>
<stop offset="0.209784" stop-color="#0BB86D"/>
<stop offset="0.297297" stop-color="#09B479"/>
<stop offset="0.396257" stop-color="#08AD93"/>
<stop offset="0.477124" stop-color="#0AA6A9"/>
<stop offset="0.568425" stop-color="#0D9CC6"/>
<stop offset="0.667385" stop-color="#1893DD"/>
<stop offset="0.768727" stop-color="#258BF1"/>
<stop offset="0.858506" stop-color="#3086FF"/>
</radialGradient>
<radialGradient id="paint4_radial_14344_8023" cx="0" cy="0" r="1" gradientTransform="matrix(-1.86562 16.0652 22.2339 2.5771 24.5263 13.7051)" gradientUnits="userSpaceOnUse">
<stop offset="0.366013" stop-color="#FF4E3A"/>
<stop offset="0.457516" stop-color="#FF8A1B"/>
<stop offset="0.540305" stop-color="#FFA312"/>
<stop offset="0.615636" stop-color="#FFB60C"/>
<stop offset="0.771242" stop-color="#FFCD0A"/>
<stop offset="0.860566" stop-color="#FECF0A"/>
<stop offset="0.915033" stop-color="#FECF08"/>
<stop offset="1" stop-color="#FDCD01"/>
</radialGradient>
<radialGradient id="paint5_radial_14344_8023" cx="0" cy="0" r="1" gradientTransform="matrix(-5.3926 5.95847 -16.822 -15.1957 21.9032 13.5385)" gradientUnits="userSpaceOnUse">
<stop offset="0.315904" stop-color="#FF4C3C"/>
<stop offset="0.603818" stop-color="#FF692C"/>
<stop offset="0.726837" stop-color="#FF7825"/>
<stop offset="0.884534" stop-color="#FF8D1B"/>
<stop offset="1" stop-color="#FF9F13"/>
</radialGradient>
<radialGradient id="paint6_radial_14344_8023" cx="0" cy="0" r="1" gradientTransform="matrix(-14.5366 -8.04365 10.9255 -19.7075 29.8988 43.0656)" gradientUnits="userSpaceOnUse">
<stop offset="0.231273" stop-color="#0FBC5F"/>
<stop offset="0.311547" stop-color="#0FBC5F"/>
<stop offset="0.366013" stop-color="#0FBC5E"/>
<stop offset="0.457516" stop-color="#0FBC5D"/>
<stop offset="0.540305" stop-color="#12BC58"/>
<stop offset="0.699346" stop-color="#28BF3C"/>
<stop offset="0.771242" stop-color="#38C02B"/>
<stop offset="0.860566" stop-color="#52C218"/>
<stop offset="0.915033" stop-color="#67C30F"/>
<stop offset="1" stop-color="#86C504"/>
</radialGradient>
<linearGradient id="paint7_linear_14344_8023" x1="23.9883" y1="37.9262" x2="27.6398" y2="37.9262" gradientUnits="userSpaceOnUse">
<stop stop-color="#0FBC5C"/>
<stop offset="1" stop-color="#0CBA65"/>
</linearGradient>
<clipPath id="clip0_14344_8023">
<rect width="29.4" height="30" fill="white" transform="translate(10.8008 11)"/>
</clipPath>
</defs>
</svg>
