<svg width="56" height="56" viewBox="0 0 56 56" fill="none" xmlns="http://www.w3.org/2000/svg">
<path d="M0 28C0 12.536 12.536 0 28 0C43.464 0 56 12.536 56 28C56 43.464 43.464 56 28 56C12.536 56 0 43.464 0 28Z" fill="#D9FF00"/>
<path d="M27.25 20.125C27.05 20.125 26.875 20.05 26.725 19.9C26.575 19.75 26.5 19.575 26.5 19.375V16.375C26.5 15.325 26.8625 14.4375 27.5875 13.7125C28.3125 12.9875 29.2 12.625 30.25 12.625H33.25C33.45 12.625 33.625 12.7 33.775 12.85C33.925 13 34 13.175 34 13.375V16.375C34 17.425 33.6375 18.3125 32.9125 19.0375C32.1875 19.7625 31.3 20.125 30.25 20.125H27.25ZM18.25 29.125C16.8 29.125 15.5625 28.6125 14.5375 27.5875C13.5125 26.5625 13 25.325 13 23.875V20.125C13 19.7 13.1437 19.3438 13.4312 19.0563C13.7187 18.7688 14.075 18.625 14.5 18.625H18.25C19.7 18.625 20.9375 19.1375 21.9625 20.1625C22.9875 21.1875 23.5 22.425 23.5 23.875V27.625C23.5 28.05 23.3562 28.4063 23.0687 28.6938C22.7812 28.9813 22.425 29.125 22 29.125H18.25ZM34 42.625C33.025 42.625 32.0937 42.475 31.2062 42.175C30.3187 41.875 29.5125 41.4625 28.7875 40.9375L27.55 42.175C27.275 42.45 26.925 42.5875 26.5 42.5875C26.075 42.5875 25.725 42.45 25.45 42.175C25.175 41.9 25.0375 41.55 25.0375 41.125C25.0375 40.7 25.175 40.35 25.45 40.075L26.6875 38.8375C26.1625 38.1125 25.75 37.3063 25.45 36.4188C25.15 35.5312 25 34.6 25 33.625C25 31.125 25.875 28.9938 27.625 27.2313C29.375 25.4688 31.5 24.5875 34 24.5875H40.0375C40.8625 24.5875 41.5687 24.8813 42.1562 25.4688C42.7437 26.0563 43.0375 26.7625 43.0375 27.5875V33.625C43.0375 36.125 42.1562 38.25 40.3937 40C38.6312 41.75 36.5 42.625 34 42.625ZM29.95 37.675C30.225 37.95 30.575 38.0875 31 38.0875C31.425 38.0875 31.775 37.95 32.05 37.675L35.05 34.675C35.325 34.4 35.4625 34.05 35.4625 33.625C35.4625 33.2 35.325 32.85 35.05 32.575C34.775 32.3 34.425 32.1625 34 32.1625C33.575 32.1625 33.225 32.3 32.95 32.575L29.95 35.575C29.675 35.85 29.5375 36.2 29.5375 36.625C29.5375 37.05 29.675 37.4 29.95 37.675Z" fill="#00403D"/>
</svg>
