<svg version="1.2" xmlns="http://www.w3.org/2000/svg" viewBox="0 0 90 90" width="90" height="90">
	<style>
		.s0 { fill: #d9ff00 } 
	</style>
	<path class="s0" d="m44.75 8.08c20.23 0 36.72 16.58 36.72 36.92 0 20.34-16.49 36.92-36.72 36.92-20.22 0-36.71-16.58-36.71-36.92 0-10.03 4.01-19.16 10.51-25.82 4.74 1.3 9.47 3.72 13.54 7.85-1.12 1.63-1.53 4.15-1.28 7.23l11.52-6.69c-2.52-1.76-4.91-2.66-6.87-2.5-1.53-5.63-1.25-11 0.02-15.8 2.96-0.78 6.07-1.19 9.27-1.19zm25.19 17.44c-0.36-0.36-0.96-0.36-1.31 0.01l-6.15 6.3-12.62-3.05v0.01c-0.38-0.1-0.78 0.05-1 0.4l-1.69 2.63q-1.16-1.22-2.32-2.25l-0.07 0.04-3.22 8.83 11.63 20.26-1.01 0.57-11.62-20.24-9.21-1.62-0.08 0.05q0.3 1.51 0.78 3.13l-3.12 0.16c-0.4 0.02-0.73 0.3-0.84 0.66l-3.69 12.52-8.5 2.21c-0.49 0.13-0.79 0.64-0.66 1.13 0.12 0.5 0.63 0.8 1.12 0.67l8.98-2.33c0.33-0.07 0.6-0.3 0.7-0.64l3.64-12.39 2.95-0.15q0.98 2.87 2.44 5.9l-2.71-0.04c-0.44 0-0.82 0.3-0.92 0.72l-2.92 12.86-5.71 4.98c-0.38 0.34-0.42 0.93-0.1 1.32 0.34 0.39 0.93 0.43 1.32 0.09l5.93-5.18q0.23-0.19 0.31-0.5l2.82-12.41 2.93 0.04q0.49 0.92 1.01 1.84 1.16 2 2.4 3.82l-2.99 0.06c-0.48 0.01-0.85 0.37-0.91 0.83l-1.75 11.25q-0.05 0.37 0.15 0.67l4.6 6.86c0.29 0.43 0.88 0.54 1.29 0.25 0.43-0.29 0.54-0.87 0.26-1.3l-4.41-6.56 1.58-10.15 3.49-0.07c6.16 8.31 13.28 12.88 17.28 10.56 4-2.33 3.62-10.81-0.45-20.33l1.8-3 9.53 3.69 3.45 7.12c0.23 0.47 0.79 0.66 1.25 0.44 0.46-0.23 0.65-0.79 0.43-1.25l-3.61-7.45c-0.1-0.2-0.27-0.38-0.5-0.46l-10.57-4.09c-0.42-0.19-0.92-0.04-1.17 0.36l-1.54 2.58q-0.95-1.99-2.09-4-0.54-0.92-1.09-1.8l1.43-2.57 12.11 3.75q0.3 0.08 0.58-0.01l7.43-2.58c0.48-0.17 0.74-0.7 0.57-1.19-0.17-0.49-0.69-0.75-1.18-0.58l-7.15 2.49-12.54-3.89c-0.4-0.13-0.86 0.05-1.07 0.44l-1.32 2.37q-1.88-2.78-3.87-5.07l1.6-2.49 12.51 3.02c0.33 0.08 0.67-0.04 0.9-0.28l6.49-6.65c0.36-0.37 0.35-0.96-0.01-1.32zm-32 7.78l-5.52 3.21 8.19 1.44 2.85-7.85zm-4.53-23.42c-1.1 4.81-1.25 10.13 0.27 15.7q-0.06 0.04-0.13 0.07-0.07 0.04-0.13 0.09c-4.02-4.09-8.65-6.62-13.32-8.06 3.8-3.48 8.32-6.16 13.31-7.8z"/>
</svg>