<svg width="176" height="42" viewBox="0 0 176 42" fill="none" xmlns="http://www.w3.org/2000/svg">
<path d="M58.4312 10.0485C60.0096 10.0485 61.297 10.271 62.2933 10.7162C63.2897 11.1614 64.0196 11.7847 64.4833 12.586C64.9568 13.3873 65.1936 14.3123 65.1936 15.361C65.1936 16.4195 64.9864 17.3297 64.5721 18.0915C64.1578 18.8433 63.6349 19.432 63.0036 19.8574C62.3821 20.2729 61.7458 20.5054 61.0947 20.5548C61.7557 20.5746 62.4462 20.7527 63.1663 21.089C63.8865 21.4254 64.4981 21.9646 65.0012 22.7065C65.5043 23.4485 65.7559 24.4428 65.7559 25.6893C65.7559 26.8468 65.524 27.9004 65.0604 28.8501C64.5967 29.7899 63.8273 30.5418 62.752 31.1057C61.6866 31.6597 60.2414 31.9367 58.4164 31.9367H49.3457V10.0485H58.4312ZM54.3768 20.1393L52.6455 18.7147H56.9515C57.9774 18.7147 58.7272 18.4872 59.2007 18.0321C59.6841 17.577 59.9257 16.9884 59.9257 16.2662C59.9257 15.7814 59.8222 15.3758 59.615 15.0494C59.4177 14.7229 59.107 14.4756 58.6828 14.3074C58.2586 14.1392 57.721 14.0551 57.0699 14.0551H51.9944L54.3768 11.6066V20.1393ZM57.3806 27.9152C58.3868 27.9152 59.1366 27.6778 59.6298 27.2029C60.123 26.728 60.3697 26.1147 60.3697 25.3628C60.3697 24.9671 60.3006 24.606 60.1625 24.2795C60.0343 23.9531 59.837 23.6711 59.5706 23.4337C59.3141 23.1962 58.9935 23.0132 58.6088 22.8846C58.2241 22.756 57.7851 22.6917 57.2918 22.6917H52.6455L54.3768 21.2671V30.3637L51.9944 27.9152H57.3806Z" fill="white"/>
<path d="M85.18 24.0866C85.18 26.8369 84.4254 28.8946 82.9161 30.2598C81.4166 31.6251 79.3647 32.3077 76.7604 32.3077C74.1561 32.3077 72.1042 31.6251 70.6047 30.2598C69.1053 28.8946 68.3556 26.8369 68.3556 24.0866C68.3556 23.7206 68.3556 23.3397 68.3556 22.944C68.3556 22.5384 68.3556 22.1179 68.3556 21.6826V10.0485H73.653V22.4839C73.653 22.8005 73.653 23.1023 73.653 23.3892C73.653 23.6761 73.653 23.9481 73.653 24.2053C73.653 25.531 73.8848 26.5203 74.3484 27.1732C74.822 27.8262 75.6259 28.1526 76.7604 28.1526C77.8949 28.1526 78.6988 27.8262 79.1723 27.1732C79.6557 26.5203 79.8974 25.531 79.8974 24.2053V10.0485H85.18V24.0866Z" fill="white"/>
<path d="M97.2419 32.3077C95.4859 32.3077 93.8829 31.8823 92.4328 31.0315C90.9925 30.1708 89.8482 28.9094 88.9998 27.2474C88.1514 25.5755 87.7272 23.5128 87.7272 21.0594C87.7272 18.6158 88.1761 16.5482 89.0738 14.8565C89.9814 13.1647 91.1947 11.8836 92.7139 11.013C94.243 10.1325 95.9447 9.69231 97.819 9.69231C99.3974 9.69231 100.734 9.94458 101.829 10.4491C102.934 10.9438 103.827 11.5819 104.507 12.3634C105.198 13.145 105.696 13.9661 106.002 14.8268C106.318 15.6875 106.475 16.474 106.475 17.1863C106.475 17.2159 106.475 17.2456 106.475 17.2753C106.475 17.305 106.475 17.3346 106.475 17.3643H101.341C101.341 17.3346 101.341 17.305 101.341 17.2753C101.341 17.2456 101.341 17.2159 101.341 17.1863C101.341 16.7707 101.262 16.3651 101.104 15.9694C100.956 15.5737 100.729 15.2175 100.423 14.901C100.117 14.5844 99.7476 14.3321 99.3135 14.1442C98.8794 13.9562 98.3813 13.8622 97.819 13.8622C97.0594 13.8622 96.3146 14.0848 95.5846 14.53C94.8645 14.9653 94.2676 15.7072 93.7941 16.7559C93.3305 17.7947 93.0986 19.2292 93.0986 21.0594C93.0986 22.4444 93.2318 23.5969 93.4982 24.517C93.7645 25.4271 94.1147 26.1493 94.5488 26.6835C94.9927 27.2177 95.4909 27.5986 96.0433 27.8262C96.5957 28.0438 97.158 28.1526 97.7302 28.1526C98.5292 28.1526 99.205 28.0191 99.7574 27.752C100.32 27.4849 100.764 27.1534 101.089 26.7577C101.415 26.362 101.622 25.9762 101.711 25.6002V24.4724H97.7302V20.7329H106.387V31.9367H103.782L103.279 29.5179C103.21 29.7157 103.042 29.9729 102.776 30.2895C102.52 30.6061 102.155 30.9177 101.681 31.2244C101.208 31.5311 100.601 31.7883 99.861 31.9961C99.131 32.2038 98.258 32.3077 97.2419 32.3077Z" fill="white"/>
<path d="M114.762 31.9367H109.612V10.0485H117.736L124.409 30.2153L123.448 30.4231V10.0485H128.582V31.9367H120.399L113.726 11.844L114.762 11.6363V31.9367Z" fill="white"/>
<path d="M131.3 31.9367V27.93H138.107L135.724 30.3192V11.666L138.107 14.0551H131.3V10.0485H145.446V14.0551H138.625L141.007 11.666V30.3192L138.625 27.93H145.446V31.9367H131.3Z" fill="white"/>
<path d="M154.352 18.9818L154.308 23.2556L147.205 10.0485H153.139L157.504 19.7386H155.654L159.975 10.0485H165.924L158.88 23.2556L158.836 18.9818L166.131 31.9367H160.182L155.566 22.4839H157.578L152.961 31.9367H147.027L154.352 18.9818Z" fill="white"/>
<path d="M21.3828 3.76923C31.0447 3.76923 38.9256 11.5083 38.9258 21.0017C38.9258 30.4905 31.0448 38.2302 21.3828 38.2302C11.7209 38.23 3.83984 30.4904 3.83984 21.0017C3.83992 16.3172 5.75943 12.0601 8.86426 8.94892C11.1275 9.55554 13.3893 10.6884 15.3311 12.6159C14.7968 13.3742 14.5988 14.5524 14.7207 15.986L20.2256 12.8679C19.0182 12.0454 17.8802 11.6244 16.9434 11.7009C16.2113 9.06987 16.3467 6.5672 16.9502 4.32782C18.3669 3.96327 19.8525 3.76925 21.3828 3.76923ZM33.417 11.9079C33.2422 11.7409 32.9582 11.7411 32.7881 11.9128L29.8496 14.8542L23.8213 13.4294V13.4343C23.6418 13.3879 23.4477 13.4575 23.3438 13.6198L22.5352 14.8493C22.1667 14.4694 21.7979 14.1184 21.4307 13.8005L21.3926 13.819L19.8564 17.9401L25.4131 27.3913L24.9316 27.6608L19.3799 18.2136L14.9766 17.4577L14.9385 17.4802C15.0355 17.9512 15.1603 18.4407 15.3115 18.944L13.8232 19.0163C13.6298 19.0257 13.4739 19.1554 13.4219 19.3268L11.6592 25.1686L7.59668 26.1989C7.36044 26.2592 7.21788 26.4962 7.2793 26.7282C7.34073 26.9602 7.58213 27.0991 7.81836 27.0388L12.1084 25.9528C12.2642 25.9203 12.3921 25.8096 12.4395 25.652L14.1826 19.8698L15.5908 19.8005C15.9021 20.6909 16.2905 21.616 16.7549 22.5534L15.4629 22.5339C15.2504 22.5339 15.0708 22.6771 15.0234 22.8718L13.625 28.8718L10.8984 31.196C10.7143 31.3537 10.6959 31.6322 10.8516 31.8132C11.0122 31.9941 11.2962 32.0129 11.4805 31.8552L14.3145 29.4382C14.3853 29.3825 14.4373 29.2986 14.4609 29.2058L15.8076 23.4108L17.2109 23.4323C17.3651 23.7169 17.5259 24.0027 17.6934 24.2878C18.0601 24.9116 18.4436 25.5081 18.8379 26.0739L17.4092 26.1013C17.1825 26.106 17.0029 26.2737 16.9746 26.487L16.1387 31.739C16.1198 31.8503 16.1476 31.9623 16.209 32.0505L18.4111 35.2517C18.5481 35.4512 18.827 35.5024 19.0254 35.3679C19.2285 35.2333 19.2854 34.9639 19.1484 34.7643L17.041 31.7018L17.7969 26.9645L19.4629 26.9313C22.4078 30.8076 25.8077 32.9423 27.7188 31.8601C29.6298 30.7739 29.4505 26.8155 27.5059 22.3727L28.3662 20.9743L32.9209 22.696L34.5693 26.0183C34.678 26.2363 34.943 26.3244 35.165 26.2224C35.3823 26.1156 35.4768 25.8554 35.3682 25.6374L33.6436 22.1618C33.5963 22.0692 33.5158 21.986 33.4072 21.9489L28.3564 20.0368C28.1533 19.9488 27.9169 20.0185 27.7988 20.2087L27.0615 21.4099C26.7601 20.7924 26.4268 20.1686 26.0605 19.5456C25.8917 19.2592 25.719 18.9784 25.5439 18.7038L26.2256 17.5036L32.0088 19.2526C32.1031 19.2804 32.2022 19.2764 32.2871 19.2487L35.8359 18.0466C36.0674 17.9677 36.1897 17.7173 36.1094 17.4899C36.0291 17.2627 35.7793 17.1417 35.5479 17.2204L32.1318 18.3806L26.1406 16.5661C25.9471 16.5059 25.73 16.5896 25.626 16.7702L24.9961 17.8786C24.4009 17.0153 23.7794 16.2227 23.1494 15.5134L23.915 14.3483L29.8877 15.7595C30.0481 15.7964 30.2088 15.7407 30.3174 15.6296L33.4219 12.5251C33.5918 12.3535 33.5869 12.0796 33.417 11.9079ZM18.1279 15.5407L15.4912 17.0397L19.4033 17.7077L20.7637 14.0466L18.1279 15.5407ZM15.9648 4.61298C15.4373 6.85759 15.367 9.33779 16.0947 11.9392C16.0733 11.9503 16.0513 11.9604 16.0303 11.9724C16.009 11.9844 15.9885 11.9987 15.9678 12.0114C14.0473 10.1039 11.8364 8.92442 9.60254 8.2497C11.4188 6.62875 13.5813 5.37678 15.9648 4.61298Z" fill="#D9FF00"/>
</svg>
