<svg xmlns="http://www.w3.org/2000/svg" width="152" height="152" fill="none" viewBox="0 0 152 152"><path fill="#00403d" stroke="#f4f6f4" stroke-width="4" d="M79.432 6.985a4 4 0 0 0 5.514.496l4.08-3.263L91.7 8.707a4 4 0 0 0 5.338 1.474l4.598-2.484 1.828 4.895a4 4 0 0 0 4.989 2.402l4.966-1.622.926 5.143a4 4 0 0 0 4.479 3.255l5.177-.71-.009 5.225a4 4 0 0 0 3.827 4.002l5.22.227-.94 5.14a4 4 0 0 0 3.049 4.62l5.096 1.155-1.843 4.888a4 4 0 0 0 2.176 5.093l4.808 2.046-2.687 4.48a4 4 0 0 0 1.233 5.4l4.365 2.871-3.444 3.93a4 4 0 0 0 .248 5.531l3.782 3.605-4.09 3.251a4 4 0 0 0-.743 5.488l3.078 4.222-4.605 2.468a4 4 0 0 0-1.711 5.267l2.274 4.704-4.972 1.606a4 4 0 0 0-2.624 4.877l1.398 5.034-5.179.694a4 4 0 0 0-3.452 4.329l.476 5.203-5.219-.242a4 4 0 0 0-4.17 3.643l-.46 5.204-5.092-1.17a4 4 0 0 0-4.754 2.84l-1.382 5.038-4.801-2.06a4 4 0 0 0-5.185 1.945l-2.26 4.711-4.355-2.885a4 4 0 0 0-5.448.989l-3.065 4.232-3.771-3.617a4 4 0 0 0-5.538 0l-3.771 3.617-3.064-4.232a4 4 0 0 0-5.28-1.095l-.169.106-4.355 2.885-2.26-4.711a4 4 0 0 0-5.184-1.945l-4.802 2.06-1.382-5.038a4 4 0 0 0-4.754-2.84l-5.092 1.17-.46-5.204a4 4 0 0 0-4.17-3.643l-5.22.242.477-5.203a4 4 0 0 0-3.452-4.329l-5.179-.694 1.398-5.034a4 4 0 0 0-2.624-4.877l-4.972-1.606 2.274-4.704a4 4 0 0 0-1.71-5.267l-4.606-2.468 3.078-4.222a4 4 0 0 0-.743-5.488l-4.09-3.25 3.782-3.606a4 4 0 0 0 .248-5.531l-3.444-3.93 4.365-2.871a4 4 0 0 0 1.233-5.4l-2.687-4.48 4.808-2.046a4 4 0 0 0 2.176-5.093l-1.843-4.888 5.095-1.155a4 4 0 0 0 3.05-4.62l-.94-5.14 5.22-.227a4 4 0 0 0 3.827-4.002L28 21.06l5.177.71a4 4 0 0 0 4.48-3.255l.925-5.143 4.966 1.622a4 4 0 0 0 4.99-2.402l1.827-4.895 4.598 2.484A4 4 0 0 0 60.3 8.707l2.673-4.49 4.08 3.264a4 4 0 0 0 5.514-.496L76 3.045z"/><circle cx="75.5" cy="75.5" r="55.5" stroke="#d9ff00" stroke-width="8"/><path fill="#d9ff00" d="M81.488 42.078q-1.437-.234-2.423-1.044-.971-.807-1.375-2.105-.405-1.297-.129-2.988.274-1.674 1.1-2.77a4.5 4.5 0 0 1 2.09-1.573q1.274-.456 2.805-.206 1.69.274 2.629 1.077.942.786 1.344 2.197l-2.163.539q-.117-.879-.668-1.374-.533-.508-1.417-.653-.885-.144-1.602.177-.714.305-1.193 1.053-.476.735-.664 1.886-.193 1.185.004 2.06.201.86.78 1.375.6.504 1.563.66.52.085.984.031.479-.05.851-.25.374-.199.627-.562a2.1 2.1 0 0 0 .339-.885l.039-.237-2.732-.446.26-1.595 4.611.753-.897 5.495-1.531-.25.213-2.3.335.33q-.517.987-1.495 1.41-.958.412-2.285.195m10.042 3.066q-1.134-.558-1.763-1.42a3.5 3.5 0 0 1-.663-1.913q-.05-1.059.529-2.236.578-1.178 1.448-1.784a3.5 3.5 0 0 1 1.906-.65q1.052-.034 2.114.488 1.092.536 1.633 1.356.55.804.577 1.763.034.945-.438 1.907-.14.286-.283.538a6 6 0 0 1-.269.438l-5.728-2.817.67-1.364 4.868 2.394-1.117-.122q.445-.904.268-1.597-.162-.687-.908-1.053a1.9 1.9 0 0 0-1.075-.208q-.515.068-.97.486-.448.404-.83 1.179-.373.76-.405 1.37-.01.6.271 1.042.297.45.87.731.633.311 1.14.258a1.84 1.84 0 0 0 .935-.379l1.268 1.373a2.8 2.8 0 0 1-1.176.616 3.55 3.55 0 0 1-1.41.074 5 5 0 0 1-1.462-.47m13.57-3.838-4.965 6.068q-.365.445-.315.838.075.391.47.715.309.254.616.36.316.093.633.084l-.649 1.35a2.9 2.9 0 0 1-1.047-.237 4.1 4.1 0 0 1-1.053-.634q-.62-.506-.95-1.087a2 2 0 0 1-.256-1.203q.075-.621.631-1.302l4.803-5.87zm.43 3.516-1.033 1.263-4.817-3.942 1.034-1.263zm10.6 13.851-2.796-4.962-2.341 1.32 2.207 3.916-1.548.872-2.207-3.917-3.763 2.12-1.084-1.923 9.2-5.184 3.88 6.887zm-7.289 5.489 7.678-2.246.535 1.828-1.465.578q.888.074 1.489.531.606.474.866 1.364.076.262.093.49a1.3 1.3 0 0 1-.02.389l-1.837.27a1.7 1.7 0 0 0-.021-.41 4 4 0 0 0-.135-.577 1.94 1.94 0 0 0-.491-.824 1.8 1.8 0 0 0-.882-.508q-.527-.147-1.217.056l-3.978 1.163zm1.643 10.077q-.072-1.26.369-2.232a3.5 3.5 0 0 1 1.339-1.52q.897-.564 2.207-.639t2.266.383a3.5 3.5 0 0 1 1.503 1.34q.548.9.616 2.08.07 1.215-.377 2.09a3.24 3.24 0 0 1-1.252 1.37q-.806.495-1.875.556-.32.018-.608.018t-.514-.018l-.365-6.374 1.517-.087.311 5.415-.444-1.032q1.006-.057 1.523-.552.517-.478.47-1.309a1.9 1.9 0 0 0-.348-1.038q-.313-.414-.9-.605-.573-.192-1.435-.142-.846.048-1.392.32-.528.285-.774.75-.245.478-.209 1.117.04.703.337 1.119.296.415.789.627l-.571 1.78a2.8 2.8 0 0 1-1.115-.721 3.5 3.5 0 0 1-.757-1.19 5 5 0 0 1-.311-1.506m-.739 9.087q.258-1.238.936-2.06a3.5 3.5 0 0 1 1.688-1.12q1.013-.311 2.297-.044 1.285.268 2.089.958t1.103 1.685q.297 1.01.055 2.168-.248 1.191-.907 1.92-.642.731-1.564.998-.906.269-1.955.05-.313-.065-.592-.14t-.492-.151l1.303-6.25 1.488.31-1.107 5.31-.16-1.112q.985.206 1.614-.138.624-.327.793-1.142a1.9 1.9 0 0 0-.066-1.093q-.194-.48-.712-.818-.503-.333-1.349-.51-.83-.173-1.427-.052-.585.14-.942.523-.362.398-.492 1.025-.144.69.035 1.168.177.478.599.81l-1.014 1.571a2.76 2.76 0 0 1-.889-.986 3.6 3.6 0 0 1-.423-1.346q-.075-.735.091-1.534m4.45 17.368-9.004-5.517 1.154-1.883 9.003 5.518zm-10.486-3.56 5.795 5.515-1.356 1.426-1.827-1.562.373-.021q.435.68.52 1.334a2.5 2.5 0 0 1-.15 1.249 3.4 3.4 0 0 1-.73 1.138q-.574.603-1.247.846-.684.255-1.413.069-.728-.162-1.435-.835l-3.802-3.618 1.51-1.588 3.351 3.188q.741.705 1.296.68.565-.014 1.006-.477.309-.325.445-.792.135-.445-.025-.973-.17-.516-.751-1.068l-3.071-2.922zm-9.809 8.449q1.038-.633 2.124-.79a4.1 4.1 0 0 1 2.013.196l-.412 1.751a3 3 0 0 0-1.366-.272q-.738.02-1.489.478-.533.325-.755.667-.228.364-.019.705a.6.6 0 0 0 .375.277q.25.073.76-.107l1.351-.488q1.338-.48 2.144-.297.8.205 1.284.997.341.56.314 1.252-.04.7-.527 1.409-.478.723-1.474 1.331-1.024.625-1.975.757-.957.153-1.777-.209l.452-1.776q.592.294 1.234.24a2.45 2.45 0 0 0 1.17-.357 2.7 2.7 0 0 0 .605-.483q.223-.248.267-.482a.56.56 0 0 0-.08-.438.58.58 0 0 0-.424-.266q-.283-.033-.855.166l-1.568.564q-1.136.412-1.873.187a1.94 1.94 0 0 1-1.146-.894 2.4 2.4 0 0 1-.362-1.391q.034-.714.532-1.431.495-.694 1.477-1.296m-5.48-.619 3.166 10.91-1.89.549-.847-2.403.342.2q.057.716-.16 1.346a2.76 2.76 0 0 1-.731 1.095q-.495.477-1.217.687a3.15 3.15 0 0 1-1.813.01q-.876-.263-1.55-1.033-.684-.751-1.05-2.011t-.198-2.292q.171-1.016.786-1.711.6-.69 1.552-.967 1.014-.294 1.855.078.826.377 1.321 1.166l-.106.381-1.565-5.394zm-2.527 5.815q-.846.246-1.148.983-.313.758.026 1.925.338 1.168.989 1.629.64.481 1.484.236a1.68 1.68 0 0 0 .868-.569q.32-.393.394-.997.08-.59-.14-1.342-.213-.738-.585-1.213-.37-.475-.855-.652a1.75 1.75 0 0 0-1.033 0m-9.894-.25q1.264-.01 2.212.481.93.49 1.45 1.414.517.924.526 2.237.008 1.311-.496 2.243a3.5 3.5 0 0 1-1.415 1.434q-.924.501-2.108.51-1.216.008-2.068-.482a3.24 3.24 0 0 1-1.305-1.319q-.454-.83-.46-1.901-.003-.32.011-.608a6 6 0 0 1 .045-.513l6.384-.043.01 1.52-5.424.037 1.054-.391q.006 1.008.474 1.548.452.542 1.284.536a1.9 1.9 0 0 0 1.054-.295q.43-.291.65-.869.22-.561.214-1.425-.006-.848-.25-1.407-.258-.542-.709-.811-.465-.269-1.106-.264-.703.005-1.134.279-.43.276-.667.757l-1.748-.66q.252-.627.777-1.078.508-.452 1.227-.696a5 5 0 0 1 1.518-.234m-11.05 6.889q-1.037-.27-1.67-.764-.65-.482-.949-1.121a3.1 3.1 0 0 1-.338-1.311l2.167-.199q-.025.738.254 1.19t.915.617q.588.153 1.079-.018.486-.155.847-.656.358-.486.57-1.307.214-.822.136-1.419-.09-.603-.441-.974a1.96 1.96 0 0 0-.939-.525 1.9 1.9 0 0 0-.83-.049 1.43 1.43 0 0 0-.65.343q-.298.254-.488.668l-1.76-1.118q.35-.653.952-1.059.601-.405 1.405-.512.805-.105 1.765.144 1.193.31 1.982 1.025.79.718 1.052 1.744.264 1.027-.066 2.297t-1.057 2.04a3.5 3.5 0 0 1-1.751 1.017q-1.023.247-2.185-.053m-10.413-1.548 3.635-6.946q.267-.511.138-.885-.15-.368-.604-.605a2 2 0 0 0-.676-.228 2 2 0 0 0-.637.046l.363-1.453a2.9 2.9 0 0 1 1.073.019q.59.112 1.159.408a4 4 0 0 1 1.15.873q.428.495.495 1.126.053.624-.355 1.403l-3.517 6.72zm-1.133-3.356.757-1.446 5.514 2.886-.756 1.446zm-3.88-1.281q.55.414.645.846.085.445-.26.905-.357.472-.798.501-.452.04-1.001-.373-.55-.414-.636-.859-.094-.431.261-.905.346-.459.798-.501.441-.028.991.386m-.176-1.575 4.811-6.391 1.751 1.318-4.811 6.392zm-5.41-5.264q-.808-.91-1.043-1.921a3.5 3.5 0 0 1 .11-2.022q.343-1.01 1.323-1.882.97-.86 2.026-1.093a3.5 3.5 0 0 1 2.02.132q.977.352 1.785 1.261.795.898 1.042 1.921.244 1.023-.098 2.034-.367 1.01-1.335 1.87-.981.871-2.015 1.105-1.044.221-2.032-.143-.987-.365-1.783-1.262m1.22-1.084q.403.455.906.587.48.13 1.047-.074.568-.205 1.201-.768t.904-1.102.21-1.042q-.084-.504-.488-.958-.393-.443-.872-.573-.503-.132-1.07.072t-1.201.768-.905 1.102q-.27.54-.186 1.043.06.502.454.945m1.23-8.923-7.212 3.462-.852-1.774 2.108-1.154-.112.356q-.79.165-1.432.013a2.5 2.5 0 0 1-1.114-.584 3.4 3.4 0 0 1-.806-1.086q-.36-.75-.348-1.466a2.32 2.32 0 0 1 .437-1.345q.411-.623 1.29-1.046l4.731-2.27.949 1.975-4.169 2.001q-.922.445-1.096.97-.187.534.09 1.11.194.405.582.697.367.285.918.323.544.022 1.265-.323l3.822-1.835zm-4.011-8.99-7.829 1.648-.392-1.863 1.505-.464q-.88-.142-1.444-.645-.566-.517-.758-1.426a2.4 2.4 0 0 1-.055-.495q0-.23.05-.387l1.853-.128q-.03.17-.012.41.015.227.091.587.099.47.426.859.312.392.84.575.515.186 1.218.038l4.056-.853zm-10.398-7.293q.032.687-.24 1.037-.288.35-.863.376-.592.028-.895-.294-.32-.322-.352-1.009t.256-1.037q.273-.349.864-.377.575-.027.894.295.304.321.336 1.01m1.1-1.14 7.991-.374.102 2.19-7.99.373zm8.812-6.328q-.187 1.25-.816 2.11a3.5 3.5 0 0 1-1.621 1.215q-.993.37-2.291.176-1.297-.193-2.14-.836a3.5 3.5 0 0 1-1.199-1.619q-.353-.99-.179-2.162.18-1.202.795-1.968.6-.768 1.504-1.086.89-.32 1.95-.163a11 11 0 0 1 .599.106q.282.058.499.123l-.941 6.314-1.503-.224.8-5.365.223 1.101q-.996-.148-1.603.23-.604.364-.727 1.186-.09.601.13 1.087.221.47.757.776.52.305 1.376.432.838.124 1.428-.03.576-.172.91-.576.338-.42.432-1.052.104-.696-.101-1.164a1.84 1.84 0 0 0-.645-.775l.922-1.626q.579.345.944.933.368.573.5 1.32.117.73-.003 1.537m.96-5.4-7.295-3.284.808-1.795 2.24.87-.345.142q-.635-.497-.932-1.087a2.5 2.5 0 0 1-.271-1.227q.015-.66.312-1.316.34-.76.896-1.211a2.32 2.32 0 0 1 1.31-.533q.741-.087 1.631.313l4.785 2.155-.9 1.999-4.216-1.899q-.933-.42-1.448-.213-.529.2-.792.784-.184.408-.157.894.02.465.345.91.333.43 1.062.759l3.866 1.741zm.36-16.844q.686-.825 1.402-1.186.715-.384 1.42-.381.702-.02 1.33.252l-.744 2.046q-.656-.337-1.184-.277t-.948.565q-.389.468-.443.983-.066.507.233 1.047.288.53.94 1.072t1.226.728q.584.173 1.07.014.494-.17.873-.626.307-.369.399-.73a1.43 1.43 0 0 0-.034-.735 1.9 1.9 0 0 0-.397-.724l1.76-1.117q.443.595.553 1.312.112.717-.135 1.49-.246.772-.88 1.535-.788.948-1.773 1.357a3.47 3.47 0 0 1-2.025.21q-1.041-.2-2.05-1.038-1.01-.84-1.396-1.826a3.5 3.5 0 0 1-.175-2.017q.211-1.031.979-1.954m13.035-.714q-1.03.73-2.088.872a3.5 3.5 0 0 1-1.998-.329q-.956-.46-1.713-1.531-.76-1.07-.878-2.124a3.5 3.5 0 0 1 .338-1.985q.47-.941 1.436-1.626.993-.703 1.971-.789a3.24 3.24 0 0 1 1.825.334q.847.42 1.467 1.294.184.262.339.506.153.244.256.445l-5.208 3.692-.879-1.24 4.425-3.137-.64.924q-.582-.822-1.275-.998-.68-.184-1.36.297a1.9 1.9 0 0 0-.694.846q-.186.484-.036 1.084.141.585.641 1.291.49.692 1.01 1.01.525.295 1.046.258.536-.046 1.058-.416.575-.407.77-.879.195-.471.113-1.002l1.812-.46q.15.657-.02 1.328a3.6 3.6 0 0 1-.607 1.273 5 5 0 0 1-1.11 1.062m10.523-8.507q-1.01.253-1.762-.185-.753-.44-.994-1.401-.249-.993.213-1.72.457-.74 1.467-.993 1.024-.256 1.762.186.748.423.997 1.416.24.963-.217 1.704-.441.737-1.466.993M49 76c0-14.912 12.088-27 27-27s27 12.088 27 27-12.088 27-27 27-27-12.088-27-27"/><path fill="#00403d" d="M82.125 69.984 68.271 83.84q-.4.401-.912.382-.51-.018-.911-.419a1.276 1.276 0 0 1 0-1.86l13.818-13.817h-6.454q-.557 0-.935-.375a1.26 1.26 0 0 1-.377-.93q0-.555.377-.937a1.26 1.26 0 0 1 .936-.383h9.624q.558 0 .936.377.377.378.377.936v9.624q0 .558-.375.936-.375.377-.93.377t-.937-.377a1.26 1.26 0 0 1-.383-.936z"/></svg>