<svg xmlns="http://www.w3.org/2000/svg" width="152" height="152" fill="none" viewBox="0 0 152 152"><path fill="#00403d" stroke="#f4f6f4" stroke-width="4" d="M79.432 6.985a4 4 0 0 0 5.514.496l4.08-3.263L91.7 8.707a4 4 0 0 0 5.338 1.474l4.598-2.484 1.828 4.895a4 4 0 0 0 4.989 2.402l4.966-1.622.926 5.143a4 4 0 0 0 4.479 3.255l5.177-.71-.009 5.225a4 4 0 0 0 3.827 4.002l5.22.227-.94 5.14a4 4 0 0 0 3.049 4.62l5.096 1.155-1.843 4.888a4 4 0 0 0 2.176 5.093l4.808 2.046-2.687 4.48a4 4 0 0 0 1.233 5.4l4.365 2.871-3.444 3.93a4 4 0 0 0 .248 5.531l3.782 3.605-4.09 3.251a4 4 0 0 0-.743 5.488l3.078 4.222-4.605 2.468a4 4 0 0 0-1.711 5.267l2.274 4.704-4.972 1.606a4 4 0 0 0-2.624 4.877l1.398 5.034-5.179.694a4 4 0 0 0-3.452 4.329l.476 5.203-5.219-.242a4 4 0 0 0-4.17 3.643l-.46 5.204-5.092-1.17a4 4 0 0 0-4.754 2.84l-1.382 5.038-4.801-2.06a4 4 0 0 0-5.185 1.945l-2.26 4.711-4.355-2.885a4 4 0 0 0-5.448.989l-3.065 4.232-3.771-3.617a4 4 0 0 0-5.538 0l-3.771 3.617-3.064-4.232a4 4 0 0 0-5.28-1.095l-.169.106-4.355 2.885-2.26-4.711a4 4 0 0 0-5.184-1.945l-4.802 2.06-1.382-5.038a4 4 0 0 0-4.754-2.84l-5.092 1.17-.46-5.204a4 4 0 0 0-4.17-3.643l-5.22.242.477-5.203a4 4 0 0 0-3.452-4.329l-5.179-.694 1.398-5.034a4 4 0 0 0-2.624-4.877l-4.972-1.606 2.274-4.704a4 4 0 0 0-1.71-5.267l-4.606-2.468 3.078-4.222a4 4 0 0 0-.743-5.488l-4.09-3.25 3.782-3.606a4 4 0 0 0 .248-5.531l-3.444-3.93 4.365-2.871a4 4 0 0 0 1.233-5.4l-2.687-4.48 4.808-2.046a4 4 0 0 0 2.176-5.093l-1.843-4.888 5.095-1.155a4 4 0 0 0 3.05-4.62l-.94-5.14 5.22-.227a4 4 0 0 0 3.827-4.002L28 21.06l5.177.71a4 4 0 0 0 4.48-3.255l.925-5.143 4.966 1.622a4 4 0 0 0 4.99-2.402l1.827-4.895 4.598 2.484A4 4 0 0 0 60.3 8.707l2.673-4.49 4.08 3.264a4 4 0 0 0 5.514-.496L76 3.045z"/><circle cx="75.5" cy="75.5" r="55.5" stroke="#d9ff00" stroke-width="8"/><path fill="#d9ff00" d="M83.14 31.383q1.204.174 1.999.71a2.96 2.96 0 0 1 1.146 1.347q.367.813.214 1.874-.155 1.06-.74 1.752-.567.678-1.481.965-.913.272-2.116.098l-2.201-.32-.537 3.706-2.186-.317 1.516-10.451zm-1.06 4.971q.981.143 1.532-.198.552-.355.67-1.164.12-.823-.312-1.306-.43-.483-1.413-.625l-1.868-.271-.478 3.293zm11.207-3.43-3.236 8.44q-.201.524-.102.8.1.279.518.44.254.096.43.13.18.018.464.04l-.695 1.276q-.311.053-.728-.022a3.4 3.4 0 0 1-.782-.197q-1.09-.417-1.398-1.135-.287-.727.16-1.892l3.322-8.666zm5.185 10.154q.368-.58.235-1.12-.12-.528-.66-.871a1.8 1.8 0 0 0-1.04-.3q-.543.017-1.094.5L94.639 39.8a2.9 2.9 0 0 1 1.908-.8q1.127-.044 2.438.786.892.566 1.374 1.268.491.69.506 1.476.027.794-.504 1.632l-1.738 2.744q-.325.513.162.822.23.144.475.206l-.836 1.08q-.462-.046-.99-.38a2.5 2.5 0 0 1-.748-.702 1.57 1.57 0 0 1-.287-.863q-.003-.476.314-.975l.035-.054.358.151a1.84 1.84 0 0 1-1.002.596q-.588.12-1.235-.024a3.6 3.6 0 0 1-1.187-.487q-.69-.437-1.061-.956a2.03 2.03 0 0 1-.377-1.11q-.014-.577.363-1.172.48-.756 1.266-.921.794-.18 1.811.219l2.867 1.096-.741 1.14-1.828-.703q-.52-.195-.865-.188-.324.003-.547.355-.214.337-.082.667.146.339.497.561.284.18.597.284.314.104.624.092t.594-.192.516-.545zm11.539 6.632-8.374 3.535q-1.053.475-1.846.57-.784.107-1.423-.145-.629-.24-1.214-.853a4 4 0 0 1-.68-.944 3.4 3.4 0 0 1-.343-.913l1.466-.759q.035.386.2.695.15.32.45.632.309.324.669.423.37.11.942-.126l.685-.28.895-2.073 2.668-5.937 1.681 1.757-2.419 4.416-.869 1.407 1.569-.814 4.406-2.199zm8.185 14.873-2.058-5.311-2.507.97 1.625 4.193-1.657.641-1.624-4.192-4.028 1.56-.798-2.058 9.847-3.815 2.856 7.37zm-7.955 7.168a3.5 3.5 0 0 1 .15-1.461q.227-.665.812-1.106.602-.426 1.605-.522l5.289-.501.207 2.182-4.763.452q-.924.087-1.254.504-.313.416-.246 1.133.032.334.173.642.157.306.435.521.28.23.691.337.428.104.986.05l4.284-.405.207 2.182-7.964.755-.184-1.943 1.378-.211q-.834-.324-1.283-.988-.432-.65-.523-1.621m11.747 10.535-8.976-1.074q-.557-.067-.801.097-.246.165-.299.609-.032.27-.021.449.026.18.074.46l-1.407-.362a2.2 2.2 0 0 1-.157-.712 3.4 3.4 0 0 1 0-.805q.138-1.16.759-1.634.635-.456 1.874-.307l9.214 1.102zm-1.374 6.578-8.735-2.33q-.54-.144-.807-.017-.266.129-.381.561a2.6 2.6 0 0 0-.085.441q.002.183.008.466l-1.341-.557a2.1 2.1 0 0 1-.055-.726 3.4 3.4 0 0 1 .114-.798q.3-1.128.982-1.51.693-.36 1.898-.04l8.967 2.392zm-10.508 17.156-6.465-9.19 1.473-2.113 10.868 2.877-1.336 1.916-6.784-2.02-2.054-.69 1.354 1.666 4.244 5.69zm-4.205 2.357q.506-.468.947-.484.453-.005.845.417.402.435.351.874-.04.452-.545.919-.506.468-.959.472-.441.017-.844-.417-.391-.423-.351-.874.052-.44.556-.907m-1.581-.107-5.433-5.872 1.609-1.489 5.433 5.872zm-9.957-3.074a3.25 3.25 0 0 1 1.779-.485q.914.031 1.774.598.847.576 1.512 1.688.681 1.14.759 2.174.085 1.049-.341 1.863a3.33 3.33 0 0 1-1.284 1.345q-.906.541-1.81.373-.9-.17-1.573-.887l.048-.326 2.962 4.958-1.881 1.124-5.901-9.875 1.69-1.01 1.37 2.014-.299.03a3 3 0 0 1-.233-1.389q.064-.672.43-1.245t.998-.95m.312 1.77a1.7 1.7 0 0 0-.704.756q-.2.475-.098 1.084.09.618.5 1.304.394.66.857.998.471.352.976.386t.986-.254q.77-.46.88-1.271.105-.79-.518-1.834-.624-1.044-1.377-1.339-.746-.281-1.502.17m-9.967 2.452q1.22-.327 2.26-.09 1.026.24 1.76 1.004.733.765 1.071 2.033.339 1.267.083 2.296a3.5 3.5 0 0 1-1.01 1.743q-.769.718-1.912 1.024-1.174.313-2.122.052a3.24 3.24 0 0 1-1.594-.949q-.648-.688-.924-1.724a11 11 0 0 1-.141-.592 6 6 0 0 1-.086-.507l6.168-1.645.392 1.469-5.24 1.398.92-.644q.26.975.85 1.38.572.41 1.376.196a1.9 1.9 0 0 0 .946-.55q.344-.39.411-1.004.072-.599-.15-1.434-.219-.82-.595-1.298-.387-.46-.89-.607-.519-.144-1.137.021-.68.181-1.028.556a1.84 1.84 0 0 0-.455.9l-1.859-.2q.087-.67.482-1.238.378-.565 1.013-.982a5 5 0 0 1 1.41-.608m-9.039 9.409q-1.216-.007-2.125-.51a3.5 3.5 0 0 1-1.43-1.434q-.522-.931-.513-2.243.009-1.296.543-2.237a3.5 3.5 0 0 1 1.45-1.414q.915-.49 2.13-.482 1.2.009 2.125.51a3.6 3.6 0 0 1 1.447 1.434q.505.948.497 2.243-.01 1.313-.527 2.237a3.6 3.6 0 0 1-1.466 1.414q-.93.49-2.13.482m.011-1.632q.608.004 1.042-.281.418-.269.645-.828t.234-1.406-.215-1.41q-.22-.561-.634-.852-.43-.275-1.038-.279-.593-.003-1.01.265-.435.286-.662.844t-.233 1.407.215 1.409q.22.561.65.836.414.29 1.006.295m-13.84-5.969q.965.388 1.317 1.185t-.018 1.717q-.381.95-1.181 1.267-.806.331-1.771-.056-.98-.395-1.317-1.185-.358-.782.023-1.732.37-.92 1.176-1.252.791-.337 1.77.056m-17.681-3.178q-.875-.845-1.208-1.744a2.96 2.96 0 0 1-.145-1.763q.177-.874.922-1.646.744-.771 1.623-.99.856-.219 1.766.081.9.313 1.775 1.157l1.6 1.544 2.6-2.694 1.589 1.534-7.333 7.598zm3.764-3.417q-.715-.689-1.36-.734-.657-.034-1.224.554-.578.599-.51 1.242.069.645.783 1.333l1.358 1.311 2.311-2.395zm-11.096-3.743 7.55-4.973q.467-.308.549-.591.081-.284-.165-.658a2.6 2.6 0 0 0-.274-.356q-.136-.12-.353-.304l1.308-.632q.284.139.58.443.3.28.52.615.642.976.473 1.738-.19.757-1.233 1.444l-7.75 5.104zm1.708-11.277q-.638.259-.844.772-.213.5.027 1.094.221.55.67.85.45.302 1.18.231l.167 1.952a2.9 2.9 0 0 1-2.016-.463q-.94-.621-1.521-2.06-.396-.98-.377-1.833a2.6 2.6 0 0 1 .45-1.493q.44-.66 1.36-1.032l3.013-1.215q.564-.228.348-.762a1.6 1.6 0 0 0-.266-.445l1.31-.39q.348.307.581.887.21.519.2 1.006a1.57 1.57 0 0 1-.271.869q-.275.386-.824.608l-.06.024-.203-.332q.6-.138 1.162.1.548.246.989.74.435.48.68 1.089.306.757.305 1.395-.015.645-.341 1.121-.325.477-.978.74-.832.336-1.566.01-.75-.318-1.344-1.234l-1.69-2.562 1.268-.494 1.074 1.637q.307.462.594.658.264.186.65.03.372-.15.456-.494.08-.36-.076-.746a2.7 2.7 0 0 0-.32-.578 1.8 1.8 0 0 0-.453-.439 1.2 1.2 0 0 0-.595-.19 1.7 1.7 0 0 0-.736.141zm-5.487-12.138 8.86 2.034q1.13.231 1.83.618.697.372 1.068.95.369.564.486 1.403.086.618 0 1.163a3.4 3.4 0 0 1-.258.94l-1.633-.242q.197-.333.245-.68.064-.347.006-.776a1.47 1.47 0 0 0-.296-.734q-.237-.306-.838-.45l-.718-.174-1.94 1.157-5.638 3.254-.334-2.41 4.545-2.164 1.528-.632-1.748-.258-4.86-.796zm2.023-16.83-1.424 5.515 2.603.672 1.124-4.353 1.72.444-1.124 4.353 4.183 1.08-.552 2.138-10.225-2.64 1.976-7.653zm10.65-1.183q-.404.69-.977 1.097a2.3 2.3 0 0 1-1.304.423q-.738-.006-1.608-.515l-4.584-2.684 1.108-1.892 4.128 2.417q.8.469 1.312.324.498-.154.862-.775.17-.29.235-.623a1.55 1.55 0 0 0-.049-.677 1.75 1.75 0 0 0-.364-.677 3 3 0 0 0-.77-.617l-3.713-2.175 1.107-1.892 6.904 4.043-.986 1.684-1.242-.634q.488.75.464 1.55-.03.78-.523 1.623m-3.377-15.413 6.656 6.117q.413.379.708.39.294.01.598-.32.183-.2.28-.352.083-.162.208-.417l.93 1.116q-.066.309-.288.67-.2.359-.47.653-.791.86-1.572.882-.78 0-1.7-.846l-6.833-6.278zm4.948-4.53 5.733 6.99q.355.433.646.483.29.052.637-.232a2.6 2.6 0 0 0 .326-.31q.105-.148.265-.382l.765 1.235q-.11.296-.38.622a3.4 3.4 0 0 1-.557.581q-.903.741-1.68.653-.772-.11-1.564-1.075l-5.886-7.175zm14.61 1.233q-.966.386-1.77.054-.806-.333-1.175-1.254-.38-.95-.021-1.732.353-.795 1.319-1.183.98-.392 1.77-.054.8.318 1.18 1.268.369.921.016 1.718-.338.79-1.319 1.183M49 76c0-14.912 12.088-27 27-27s27 12.088 27 27-12.088 27-27 27-27-12.088-27-27"/><path fill="#00403d" d="m74.031 81.469 7.11-4.558q.51-.328.51-.911 0-.584-.51-.912l-7.11-4.557q-.546-.364-1.112-.055-.565.31-.565.966v9.115q0 .657.565.966.566.31 1.112-.054m1.97 9.114q-3.027 0-5.688-1.148-2.662-1.149-4.63-3.118-1.97-1.968-3.118-4.63T61.417 76t1.148-5.688q1.149-2.66 3.117-4.63 1.97-1.968 4.63-3.117 2.662-1.148 5.688-1.148t5.688 1.148q2.66 1.149 4.63 3.117 1.968 1.97 3.117 4.63 1.149 2.662 1.148 5.688 0 3.026-1.148 5.687-1.149 2.662-3.117 4.63-1.97 1.97-4.63 3.118-2.662 1.148-5.688 1.148"/></svg>