<svg width="36" height="36" viewBox="0 0 36 36" fill="none" xmlns="http://www.w3.org/2000/svg">
<path d="M7.5 33C6.675 33 5.96875 32.7063 5.38125 32.1188C4.79375 31.5313 4.5 30.825 4.5 30V9C4.5 8.175 4.79375 7.46875 5.38125 6.88125C5.96875 6.29375 6.675 6 7.5 6H9V4.5C9 4.075 9.14375 3.71875 9.43125 3.43125C9.71875 3.14375 10.075 3 10.5 3C10.925 3 11.2813 3.14375 11.5688 3.43125C11.8563 3.71875 12 4.075 12 4.5V6H24V4.5C24 4.075 24.1438 3.71875 24.4313 3.43125C24.7188 3.14375 25.075 3 25.5 3C25.925 3 26.2813 3.14375 26.5688 3.43125C26.8563 3.71875 27 4.075 27 4.5V6H28.5C29.325 6 30.0313 6.29375 30.6188 6.88125C31.2063 7.46875 31.5 8.175 31.5 9V16.0125C31.5 16.4375 31.3563 16.7938 31.0688 17.0813C30.7813 17.3688 30.425 17.5125 30 17.5125C29.575 17.5125 29.2188 17.3688 28.9313 17.0813C28.6438 16.7938 28.5 16.4375 28.5 16.0125V15H7.5V30H16.2C16.625 30 16.9813 30.1438 17.2688 30.4313C17.5563 30.7188 17.7 31.075 17.7 31.5C17.7 31.925 17.5563 32.2813 17.2688 32.5688C16.9813 32.8563 16.625 33 16.2 33H7.5ZM21.6938 32.3063C20.2313 30.8438 19.5 29.075 19.5 27C19.5 24.925 20.2313 23.1563 21.6938 21.6938C23.1563 20.2313 24.925 19.5 27 19.5C29.075 19.5 30.8438 20.2313 32.3063 21.6938C33.7688 23.1563 34.5 24.925 34.5 27C34.5 29.075 33.7688 30.8438 32.3063 32.3063C30.8438 33.7688 29.075 34.5 27 34.5C24.925 34.5 23.1563 33.7688 21.6938 32.3063ZM27.75 26.7V23.25C27.75 23.05 27.675 22.875 27.525 22.725C27.375 22.575 27.2 22.5 27 22.5C26.8 22.5 26.625 22.575 26.475 22.725C26.325 22.875 26.25 23.05 26.25 23.25V26.6625C26.25 26.8625 26.2875 27.0563 26.3625 27.2438C26.4375 27.4313 26.55 27.6 26.7 27.75L28.9875 30.0375C29.1375 30.1875 29.3125 30.2625 29.5125 30.2625C29.7125 30.2625 29.8875 30.1875 30.0375 30.0375C30.1875 29.8875 30.2625 29.7125 30.2625 29.5125C30.2625 29.3125 30.1875 29.1375 30.0375 28.9875L27.75 26.7Z" fill="#D9FF00"/>
</svg>
