<svg width="36" height="36" viewBox="0 0 36 36" fill="none" xmlns="http://www.w3.org/2000/svg">
<path d="M10.125 32.9999C9 32.9999 8.03125 32.6187 7.21875 31.8561C6.40625 31.0937 6 30.1499 6 29.0249V8.0999C6 7.1499 6.29375 6.2999 6.88125 5.5499C7.46875 4.7999 8.2375 4.3249 9.1875 4.1249L20.4375 1.9124C21.3625 1.7124 22.1875 1.9124 22.9125 2.5124C23.6375 3.1124 24 3.8874 24 4.8374V22.7249C24 23.4499 23.775 24.0937 23.325 24.6562C22.875 25.2187 22.3 25.5624 21.6 25.6874L9.7875 28.0499C9.5625 28.0999 9.375 28.2187 9.225 28.4062C9.075 28.5937 9 28.7999 9 29.0249C9 29.2999 9.1125 29.5312 9.3375 29.7187C9.5625 29.9062 9.825 29.9999 10.125 29.9999H27V7.4999C27 7.0749 27.1438 6.71865 27.4313 6.43115C27.7188 6.14365 28.075 5.9999 28.5 5.9999C28.925 5.9999 29.2812 6.14365 29.5688 6.43115C29.8563 6.71865 30 7.0749 30 7.4999V29.9999C30 30.8249 29.7063 31.5312 29.1188 32.1187C28.5312 32.7062 27.825 32.9999 27 32.9999H10.125ZM12.3 24.5249C12.65 24.4499 12.9375 24.2749 13.1625 23.9999C13.3875 23.7249 13.5 23.4124 13.5 23.0624V8.1749C13.5 7.6999 13.3188 7.3124 12.9563 7.0124C12.5938 6.7124 12.175 6.6124 11.7 6.7124C11.35 6.7874 11.0625 6.9624 10.8375 7.2374C10.6125 7.5124 10.5 7.8249 10.5 8.1749V23.0624C10.5 23.5374 10.6813 23.9249 11.0438 24.2249C11.4062 24.5249 11.825 24.6249 12.3 24.5249Z" fill="#D9FF00"/>
</svg>
