<svg width="36" height="36" viewBox="0 0 36 36" fill="none" xmlns="http://www.w3.org/2000/svg">
<path d="M15.75 21.75V23.25C15.75 23.875 15.9688 24.4062 16.4062 24.8438C16.8438 25.2812 17.375 25.5 18 25.5C18.625 25.5 19.1563 25.2812 19.5938 24.8438C20.0313 24.4062 20.25 23.875 20.25 23.25V21.75H21.75C22.375 21.75 22.9062 21.5312 23.3438 21.0938C23.7812 20.6563 24 20.125 24 19.5C24 18.875 23.7812 18.3438 23.3438 17.9063C22.9062 17.4688 22.375 17.25 21.75 17.25H20.25V15.75C20.25 15.125 20.0313 14.5938 19.5938 14.1562C19.1563 13.7188 18.625 13.5 18 13.5C17.375 13.5 16.8438 13.7188 16.4062 14.1562C15.9688 14.5938 15.75 15.125 15.75 15.75V17.25H14.25C13.625 17.25 13.0938 17.4688 12.6563 17.9063C12.2188 18.3438 12 18.875 12 19.5C12 20.125 12.2188 20.6563 12.6563 21.0938C13.0938 21.5312 13.625 21.75 14.25 21.75H15.75ZM9 31.5C8.175 31.5 7.46875 31.2063 6.88125 30.6188C6.29375 30.0313 6 29.325 6 28.5V15C6 14.525 6.10625 14.075 6.31875 13.65C6.53125 13.225 6.825 12.875 7.2 12.6L16.2 5.85C16.725 5.45 17.325 5.25 18 5.25C18.675 5.25 19.275 5.45 19.8 5.85L28.8 12.6C29.175 12.875 29.4688 13.225 29.6813 13.65C29.8938 14.075 30 14.525 30 15V28.5C30 29.325 29.7063 30.0313 29.1188 30.6188C28.5312 31.2063 27.825 31.5 27 31.5H9Z" fill="#D9FF00"/>
</svg>
