<svg width="36" height="36" viewBox="0 0 36 36" fill="none" xmlns="http://www.w3.org/2000/svg">
<path d="M18 17.8875L15.45 19.8375C15.3 19.9625 15.15 19.9688 15 19.8563C14.85 19.7438 14.8 19.6 14.85 19.425L15.825 16.275L13.2 14.175C13.075 14.05 13.0375 13.9062 13.0875 13.7438C13.1375 13.5813 13.25 13.5 13.425 13.5H16.65L17.625 10.425C17.675 10.25 17.8 10.1625 18 10.1625C18.2 10.1625 18.325 10.25 18.375 10.425L19.35 13.5H22.5375C22.7125 13.5 22.8313 13.5813 22.8938 13.7438C22.9563 13.9062 22.925 14.05 22.8 14.175L20.1375 16.275L21.1125 19.425C21.1625 19.6 21.1125 19.7438 20.9625 19.8563C20.8125 19.9688 20.6625 19.9625 20.5125 19.8375L18 17.8875ZM18 31.5L10.9875 33.825C10.4875 34 10.0312 33.9375 9.61875 33.6375C9.20625 33.3375 9 32.9375 9 32.4375V22.9125C8.05 21.8625 7.3125 20.6625 6.7875 19.3125C6.2625 17.9625 6 16.525 6 15C6 11.65 7.1625 8.8125 9.4875 6.4875C11.8125 4.1625 14.65 3 18 3C21.35 3 24.1875 4.1625 26.5125 6.4875C28.8375 8.8125 30 11.65 30 15C30 16.525 29.7375 17.9625 29.2125 19.3125C28.6875 20.6625 27.95 21.8625 27 22.9125V32.4375C27 32.9375 26.7938 33.3375 26.3813 33.6375C25.9688 33.9375 25.5125 34 25.0125 33.825L18 31.5ZM24.375 21.375C26.125 19.625 27 17.5 27 15C27 12.5 26.125 10.375 24.375 8.625C22.625 6.875 20.5 6 18 6C15.5 6 13.375 6.875 11.625 8.625C9.875 10.375 9 12.5 9 15C9 17.5 9.875 19.625 11.625 21.375C13.375 23.125 15.5 24 18 24C20.5 24 22.625 23.125 24.375 21.375Z" fill="#D9FF00"/>
</svg>
