<svg width="36" height="36" viewBox="0 0 36 36" fill="none" xmlns="http://www.w3.org/2000/svg">
<path d="M8.0999 32.4001C7.3574 32.4001 6.72178 32.1313 6.19303 31.5938C5.66428 31.0563 5.3999 30.4251 5.3999 29.7001V9.9001C5.3999 9.1751 5.66428 8.54385 6.19303 8.00635C6.72178 7.46885 7.3574 7.2001 8.0999 7.2001H10.7999V4.9501C10.7999 4.5676 10.9285 4.24697 11.1858 3.98822C11.443 3.72947 11.7618 3.6001 12.142 3.6001C12.5223 3.6001 12.8437 3.72947 13.1062 3.98822C13.3687 4.24697 13.4999 4.5676 13.4999 4.9501V7.2001H22.4999V4.9501C22.4999 4.5676 22.6285 4.24697 22.8858 3.98822C23.143 3.72947 23.4618 3.6001 23.842 3.6001C24.2223 3.6001 24.5437 3.72947 24.8062 3.98822C25.0687 4.24697 25.1999 4.5676 25.1999 4.9501V7.2001H27.8999C28.6424 7.2001 29.278 7.46885 29.8068 8.00635C30.3355 8.54385 30.5999 9.1751 30.5999 9.9001V29.7001C30.5999 30.4251 30.3355 31.0563 29.8068 31.5938C29.278 32.1313 28.6424 32.4001 27.8999 32.4001H8.0999ZM8.0999 29.7001H27.8999V16.2001H8.0999V29.7001ZM18.0078 21.6001C17.6275 21.6001 17.3062 21.4715 17.0437 21.2142C16.7812 20.957 16.6499 20.6382 16.6499 20.258C16.6499 19.8777 16.7785 19.5563 17.0358 19.2938C17.293 19.0313 17.6118 18.9001 17.992 18.9001C18.3723 18.9001 18.6937 19.0287 18.9562 19.286C19.2187 19.5432 19.3499 19.862 19.3499 20.2422C19.3499 20.6225 19.2213 20.9438 18.964 21.2063C18.7068 21.4688 18.388 21.6001 18.0078 21.6001ZM11.1937 21.2142C10.9312 20.957 10.7999 20.6382 10.7999 20.258C10.7999 19.8777 10.9285 19.5563 11.1858 19.2938C11.443 19.0313 11.7618 18.9001 12.142 18.9001C12.5223 18.9001 12.8437 19.0287 13.1062 19.286C13.3687 19.5432 13.4999 19.862 13.4999 20.2422C13.4999 20.6225 13.3713 20.9438 13.114 21.2063C12.8568 21.4688 12.538 21.6001 12.1578 21.6001C11.7775 21.6001 11.4562 21.4715 11.1937 21.2142ZM23.8578 21.6001C23.4775 21.6001 23.1562 21.4715 22.8937 21.2142C22.6312 20.957 22.4999 20.6382 22.4999 20.258C22.4999 19.8777 22.6285 19.5563 22.8858 19.2938C23.143 19.0313 23.4618 18.9001 23.842 18.9001C24.2223 18.9001 24.5437 19.0287 24.8062 19.286C25.0687 19.5432 25.1999 19.862 25.1999 20.2422C25.1999 20.6225 25.0713 20.9438 24.814 21.2063C24.5568 21.4688 24.238 21.6001 23.8578 21.6001ZM18.0078 27.0001C17.6275 27.0001 17.3062 26.8715 17.0437 26.6142C16.7812 26.357 16.6499 26.0382 16.6499 25.658C16.6499 25.2777 16.7785 24.9563 17.0358 24.6938C17.293 24.4313 17.6118 24.3001 17.992 24.3001C18.3723 24.3001 18.6937 24.4287 18.9562 24.686C19.2187 24.9432 19.3499 25.262 19.3499 25.6422C19.3499 26.0225 19.2213 26.3438 18.964 26.6063C18.7068 26.8688 18.388 27.0001 18.0078 27.0001ZM11.1937 26.6142C10.9312 26.357 10.7999 26.0382 10.7999 25.658C10.7999 25.2777 10.9285 24.9563 11.1858 24.6938C11.443 24.4313 11.7618 24.3001 12.142 24.3001C12.5223 24.3001 12.8437 24.4287 13.1062 24.686C13.3687 24.9432 13.4999 25.262 13.4999 25.6422C13.4999 26.0225 13.3713 26.3438 13.114 26.6063C12.8568 26.8688 12.538 27.0001 12.1578 27.0001C11.7775 27.0001 11.4562 26.8715 11.1937 26.6142ZM23.8578 27.0001C23.4775 27.0001 23.1562 26.8715 22.8937 26.6142C22.6312 26.357 22.4999 26.0382 22.4999 25.658C22.4999 25.2777 22.6285 24.9563 22.8858 24.6938C23.143 24.4313 23.4618 24.3001 23.842 24.3001C24.2223 24.3001 24.5437 24.4287 24.8062 24.686C25.0687 24.9432 25.1999 25.262 25.1999 25.6422C25.1999 26.0225 25.0713 26.3438 24.814 26.6063C24.5568 26.8688 24.238 27.0001 23.8578 27.0001Z" fill="#D9FF00"/>
</svg>
