<svg width="36" height="36" viewBox="0 0 36 36" fill="none" xmlns="http://www.w3.org/2000/svg">
<path d="M17.2687 20.4938C17.0312 20.4313 16.7999 20.3376 16.5749 20.2126L3.8999 13.3126C3.6249 13.1626 3.43115 12.9751 3.31865 12.7501C3.20615 12.5251 3.1499 12.2751 3.1499 12.0001C3.1499 11.7251 3.20615 11.4751 3.31865 11.2501C3.43115 11.0251 3.6249 10.8376 3.8999 10.6876L16.5749 3.7876C16.7999 3.6626 17.0312 3.56885 17.2687 3.50635C17.5062 3.44385 17.7499 3.4126 17.9999 3.4126C18.2499 3.4126 18.4937 3.44385 18.7312 3.50635C18.9687 3.56885 19.1999 3.6626 19.4249 3.7876L32.0999 10.6876C32.3749 10.8376 32.5687 11.0251 32.6812 11.2501C32.7937 11.4751 32.8499 11.7251 32.8499 12.0001C32.8499 12.2751 32.7937 12.5251 32.6812 12.7501C32.5687 12.9751 32.3749 13.1626 32.0999 13.3126L19.4249 20.2126C19.1999 20.3376 18.9687 20.4313 18.7312 20.4938C18.4937 20.5563 18.2499 20.5876 17.9999 20.5876C17.7499 20.5876 17.5062 20.5563 17.2687 20.4938ZM17.9999 23.5876L29.7749 17.1751C29.8249 17.1501 30.0624 17.0876 30.4874 16.9876C30.9124 16.9876 31.2687 17.1313 31.5562 17.4188C31.8437 17.7063 31.9874 18.0626 31.9874 18.4876C31.9874 18.7626 31.9249 19.0126 31.7999 19.2376C31.6749 19.4626 31.4749 19.6501 31.1999 19.8001L19.4249 26.2126C19.1999 26.3376 18.9687 26.4313 18.7312 26.4938C18.4937 26.5563 18.2499 26.5876 17.9999 26.5876C17.7499 26.5876 17.5062 26.5563 17.2687 26.4938C17.0312 26.4313 16.7999 26.3376 16.5749 26.2126L4.7999 19.8001C4.5249 19.6501 4.3249 19.4626 4.1999 19.2376C4.0749 19.0126 4.0124 18.7626 4.0124 18.4876C4.0124 18.0626 4.15615 17.7063 4.44365 17.4188C4.73115 17.1313 5.0874 16.9876 5.5124 16.9876C5.6374 16.9876 5.75615 17.0063 5.86865 17.0438C5.98115 17.0813 6.0999 17.1251 6.2249 17.1751L17.9999 23.5876ZM17.9999 29.5876L29.7749 23.1751C29.8249 23.1501 30.0624 23.0876 30.4874 22.9876C30.9124 22.9876 31.2687 23.1313 31.5562 23.4188C31.8437 23.7063 31.9874 24.0626 31.9874 24.4876C31.9874 24.7626 31.9249 25.0126 31.7999 25.2376C31.6749 25.4626 31.4749 25.6501 31.1999 25.8001L19.4249 32.2126C19.1999 32.3376 18.9687 32.4313 18.7312 32.4938C18.4937 32.5563 18.2499 32.5876 17.9999 32.5876C17.7499 32.5876 17.5062 32.5563 17.2687 32.4938C17.0312 32.4313 16.7999 32.3376 16.5749 32.2126L4.7999 25.8001C4.5249 25.6501 4.3249 25.4626 4.1999 25.2376C4.0749 25.0126 4.0124 24.7626 4.0124 24.4876C4.0124 24.0626 4.15615 23.7063 4.44365 23.4188C4.73115 23.1313 5.0874 22.9876 5.5124 22.9876C5.6374 22.9876 5.75615 23.0063 5.86865 23.0438C5.98115 23.0813 6.0999 23.1251 6.2249 23.1751L17.9999 29.5876Z" fill="#00403D"/>
</svg>
