<svg width="36" height="36" viewBox="0 0 36 36" fill="none" xmlns="http://www.w3.org/2000/svg">
<path d="M6 20.2875L9.7875 16.5L6 12.7125L2.2125 16.5L6 20.2875ZM26.25 19.5L30 13.5L33.75 19.5H26.25ZM18 18C16.75 18 15.6875 17.5625 14.8125 16.6875C13.9375 15.8125 13.5 14.75 13.5 13.5C13.5 12.225 13.9375 11.1562 14.8125 10.2938C15.6875 9.43125 16.75 9 18 9C19.275 9 20.3438 9.43125 21.2063 10.2938C22.0688 11.1562 22.5 12.225 22.5 13.5C22.5 14.75 22.0688 15.8125 21.2063 16.6875C20.3438 17.5625 19.275 18 18 18ZM0 27V24.6375C0 23.5375 0.55625 22.6563 1.66875 21.9938C2.78125 21.3313 4.225 21 6 21C6.325 21 6.6375 21.0063 6.9375 21.0188C7.2375 21.0313 7.525 21.0625 7.8 21.1125C7.45 21.6125 7.1875 22.15 7.0125 22.725C6.8375 23.3 6.75 23.9125 6.75 24.5625V27H0ZM9 27V24.5625C9 22.9375 9.83125 21.625 11.4938 20.625C13.1562 19.625 15.325 19.125 18 19.125C20.7 19.125 22.875 19.625 24.525 20.625C26.175 21.625 27 22.9375 27 24.5625V27H9ZM30 21C31.8 21 33.25 21.3313 34.35 21.9938C35.45 22.6563 36 23.5375 36 24.6375V27H29.25V24.5625C29.25 23.9125 29.1688 23.3 29.0063 22.725C28.8438 22.15 28.6 21.6125 28.275 21.1125C28.55 21.0625 28.8313 21.0313 29.1188 21.0188C29.4063 21.0063 29.7 21 30 21Z" fill="#00403D"/>
</svg>
