<svg width="36" height="36" viewBox="0 0 36 36" fill="none" xmlns="http://www.w3.org/2000/svg">
<path d="M3.67495 15.8624L9.97495 9.56243C10.325 9.21243 10.7375 8.96243 11.2125 8.81243C11.6875 8.66243 12.175 8.63743 12.675 8.73743L14.625 9.14993C13.275 10.7499 12.2125 12.1999 11.4375 13.4999C10.6625 14.7999 9.91245 16.3749 9.18745 18.2249L3.67495 15.8624ZM11.3625 19.2749C11.9375 17.4749 12.7187 15.7749 13.7062 14.1749C14.6937 12.5749 15.8875 11.0749 17.2875 9.67493C19.4875 7.47493 22 5.83118 24.825 4.74368C27.65 3.65618 30.2875 3.32493 32.7375 3.74993C33.1625 6.19993 32.8375 8.83743 31.7625 11.6624C30.6875 14.4874 29.05 16.9999 26.85 19.1999C25.475 20.5749 23.975 21.7687 22.35 22.7812C20.725 23.7937 19.0125 24.5874 17.2125 25.1624L11.3625 19.2749ZM23.8312 15.6374C24.6687 15.6374 25.375 15.3499 25.95 14.7749C26.525 14.1999 26.8125 13.4937 26.8125 12.6562C26.8125 11.8187 26.525 11.1124 25.95 10.5374C25.375 9.96243 24.6687 9.67493 23.8312 9.67493C22.9937 9.67493 22.2875 9.96243 21.7125 10.5374C21.1375 11.1124 20.85 11.8187 20.85 12.6562C20.85 13.4937 21.1375 14.1999 21.7125 14.7749C22.2875 15.3499 22.9937 15.6374 23.8312 15.6374ZM20.6625 32.8124L18.2625 27.2999C20.1125 26.5749 21.6937 25.8249 23.0062 25.0499C24.3187 24.2749 25.775 23.2124 27.375 21.8624L27.75 23.8124C27.85 24.3124 27.825 24.8062 27.675 25.2937C27.525 25.7812 27.275 26.1999 26.925 26.5499L20.6625 32.8124ZM6.07495 24.0749C6.94995 23.1999 8.01245 22.7562 9.26245 22.7437C10.5125 22.7312 11.575 23.1624 12.45 24.0374C13.325 24.9124 13.7625 25.9749 13.7625 27.2249C13.7625 28.4749 13.325 29.5374 12.45 30.4124C11.825 31.0374 10.7812 31.5749 9.3187 32.0249C7.8562 32.4749 5.83745 32.8749 3.26245 33.2249C3.61245 30.6499 4.01245 28.6374 4.46245 27.1874C4.91245 25.7374 5.44995 24.6999 6.07495 24.0749Z" fill="#00403D"/>
</svg>
