<svg width="36" height="36" viewBox="0 0 36 36" fill="none" xmlns="http://www.w3.org/2000/svg">
<path d="M18 25.9125L11.775 29.6625C11.5 29.8375 11.2125 29.9125 10.9125 29.8875C10.6125 29.8625 10.35 29.7625 10.125 29.5875C9.90002 29.4125 9.72502 29.1938 9.60002 28.9313C9.47502 28.6688 9.45002 28.375 9.52502 28.05L11.175 20.9625L5.66252 16.2C5.41252 15.975 5.25627 15.7188 5.19377 15.4313C5.13127 15.1438 5.15002 14.8625 5.25002 14.5875C5.35002 14.3125 5.50002 14.0875 5.70002 13.9125C5.90002 13.7375 6.17502 13.625 6.52502 13.575L13.8 12.9375L16.6125 6.26255C16.7375 5.96255 16.9313 5.73755 17.1938 5.58755C17.4563 5.43755 17.725 5.36255 18 5.36255C18.275 5.36255 18.5438 5.43755 18.8063 5.58755C19.0688 5.73755 19.2625 5.96255 19.3875 6.26255L22.2 12.9375L29.475 13.575C29.825 13.625 30.1 13.7375 30.3 13.9125C30.5 14.0875 30.65 14.3125 30.75 14.5875C30.85 14.8625 30.8688 15.1438 30.8063 15.4313C30.7438 15.7188 30.5875 15.975 30.3375 16.2L24.825 20.9625L26.475 28.05C26.55 28.375 26.525 28.6688 26.4 28.9313C26.275 29.1938 26.1 29.4125 25.875 29.5875C25.65 29.7625 25.3875 29.8625 25.0875 29.8875C24.7875 29.9125 24.5 29.8375 24.225 29.6625L18 25.9125Z" fill="#00403D"/>
</svg>
