<svg width="36" height="36" viewBox="0 0 36 36" fill="none" xmlns="http://www.w3.org/2000/svg">
<path d="M13.5 22.5H8.84995C8.24995 22.5 7.8062 22.2313 7.5187 21.6938C7.2312 21.1563 7.26245 20.6375 7.61245 20.1375L18.825 4.01251C19.075 3.66251 19.4 3.41876 19.8 3.28126C20.2 3.14376 20.6125 3.15001 21.0375 3.30001C21.4625 3.45001 21.775 3.71251 21.975 4.08751C22.175 4.46251 22.25 4.86251 22.2 5.28751L21 15H26.8125C27.4625 15 27.9187 15.2875 28.1812 15.8625C28.4437 16.4375 28.3625 16.975 27.9375 17.475L15.6 32.25C15.325 32.575 14.9875 32.7875 14.5875 32.8875C14.1875 32.9875 13.8 32.95 13.425 32.775C13.05 32.6 12.7562 32.3313 12.5437 31.9688C12.3312 31.6063 12.25 31.2125 12.3 30.7875L13.5 22.5Z" fill="#00403D"/>
</svg>
