<svg width="36" height="36" viewBox="0 0 36 36" fill="none" xmlns="http://www.w3.org/2000/svg">
<path d="M17.25 10.125C17.05 10.125 16.875 10.05 16.725 9.9C16.575 9.75 16.5 9.575 16.5 9.375V6.375C16.5 5.325 16.8625 4.4375 17.5875 3.7125C18.3125 2.9875 19.2 2.625 20.25 2.625H23.25C23.45 2.625 23.625 2.7 23.775 2.85C23.925 3 24 3.175 24 3.375V6.375C24 7.425 23.6375 8.3125 22.9125 9.0375C22.1875 9.7625 21.3 10.125 20.25 10.125H17.25ZM8.25 19.125C6.8 19.125 5.5625 18.6125 4.5375 17.5875C3.5125 16.5625 3 15.325 3 13.875V10.125C3 9.7 3.14375 9.34375 3.43125 9.05625C3.71875 8.76875 4.075 8.625 4.5 8.625H8.25C9.7 8.625 10.9375 9.1375 11.9625 10.1625C12.9875 11.1875 13.5 12.425 13.5 13.875V17.625C13.5 18.05 13.3562 18.4063 13.0687 18.6938C12.7812 18.9813 12.425 19.125 12 19.125H8.25ZM24 32.625C23.025 32.625 22.0937 32.475 21.2062 32.175C20.3187 31.875 19.5125 31.4625 18.7875 30.9375L17.55 32.175C17.275 32.45 16.925 32.5875 16.5 32.5875C16.075 32.5875 15.725 32.45 15.45 32.175C15.175 31.9 15.0375 31.55 15.0375 31.125C15.0375 30.7 15.175 30.35 15.45 30.075L16.6875 28.8375C16.1625 28.1125 15.75 27.3063 15.45 26.4188C15.15 25.5312 15 24.6 15 23.625C15 21.125 15.875 18.9938 17.625 17.2313C19.375 15.4688 21.5 14.5875 24 14.5875H30.0375C30.8625 14.5875 31.5687 14.8813 32.1562 15.4688C32.7437 16.0563 33.0375 16.7625 33.0375 17.5875V23.625C33.0375 26.125 32.1562 28.25 30.3937 30C28.6312 31.75 26.5 32.625 24 32.625ZM19.95 27.675C20.225 27.95 20.575 28.0875 21 28.0875C21.425 28.0875 21.775 27.95 22.05 27.675L25.05 24.675C25.325 24.4 25.4625 24.05 25.4625 23.625C25.4625 23.2 25.325 22.85 25.05 22.575C24.775 22.3 24.425 22.1625 24 22.1625C23.575 22.1625 23.225 22.3 22.95 22.575L19.95 25.575C19.675 25.85 19.5375 26.2 19.5375 26.625C19.5375 27.05 19.675 27.4 19.95 27.675Z" fill="#00403D"/>
</svg>
